SplineFontDB: 3.2
FontName: Tetris
FullName: Tetris Font
FamilyName: TETRIS
Weight: Regular
Copyright: Copyright (c) 2024, Stellar7Project
UComments: "2020-2-17: Created with FontForge (http://fontforge.org)"
Version: 2.251
ItalicAngle: 0
UnderlinePosition: -100
UnderlineWidth: 50
Ascent: 800
Descent: 200
InvalidEm: 0
LayerCount: 2
Layer: 0 0 "Back" 1
Layer: 1 0 "Fore" 0
XUID: [1021 549 2032304570 4174]
StyleMap: 0x0000
FSType: 0
OS2Version: 0
OS2_WeightWidthSlopeOnly: 0
OS2_UseTypoMetrics: 1
CreationTime: 1581975863
ModificationTime: 1711417835
OS2TypoAscent: 0
OS2TypoAOffset: 1
OS2TypoDescent: 0
OS2TypoDOffset: 1
OS2TypoLinegap: 90
OS2WinAscent: 0
OS2WinAOffset: 1
OS2WinDescent: 0
OS2WinDOffset: 1
HheadAscent: 0
HheadAOffset: 1
HheadDescent: 0
HheadDOffset: 1
MarkAttachClasses: 1
DEI: 91125
Encoding: ISO8859-1
UnicodeInterp: none
NameList: AGL For New Fonts
DisplaySize: -48
AntiAlias: 1
FitToEm: 0
WinInfo: 0 38 14
BeginPrivate: 0
EndPrivate
BeginChars: 256 80

StartChar: exclam
Encoding: 33 33 0
Width: 260
VWidth: 0
Flags: W
HStem: 14 186<33.8434 152.157> 266 484<42.1017 152.244>
VStem: 0 186<47.8434 166.157> 13 160<236.481 722.238>
LayerCount: 2
Fore
SplineSet
13 220.220703125 m 1xd0
 13 576.758789062 13.0771484375 308.762695312 13 680.724609375 c 0
 13 716.013671875 59.3662109375 750 108.717773438 750 c 0
 158.068359375 750 173 710.334960938 173 680.724609375 c 0
 175.978515625 544.39453125 171.629882812 376.252929688 173 220.2109375 c 1
 156.3046875 248.544921875 125.88671875 265.955078125 93 266 c 0
 60.115234375 265.958007812 29.697265625 248.551757812 13 220.220703125 c 1xd0
93 200 m 0
 144.362304688 200 186 158.362304688 186 107 c 0
 186 55.6376953125 144.362304688 14 93 14 c 0
 41.6376953125 14 0 55.6376953125 0 107 c 0xe0
 0 158.362304688 41.6376953125 200 93 200 c 0
EndSplineSet
EndChar

StartChar: quotedbl
Encoding: 34 34 1
Width: 436
VWidth: 0
Flags: W
HStem: 730 20G<56.2114 160 256.211 360> 730 20G<56.2114 160 256.211 360>
VStem: 0 160<544.313 720.476> 200 160<544.313 720.476>
LayerCount: 2
Fore
SplineSet
80 750 m 1xb0
 160 750 l 1
 160 566.439453125 l 2
 160 523.58203125 0 337.8671875 0 337.8671875 c 1
 0 657.142578125 l 2
 0 715.713867188 32.4228515625 740.223632812 80 750 c 1xb0
280 750 m 1
 360 750 l 1
 360 566.439453125 l 2
 360 523.58203125 200 337.8671875 200 337.8671875 c 1
 200 657.142578125 l 2
 200 715.713867188 232.422851562 740.223632812 280 750 c 1
EndSplineSet
EndChar

StartChar: quotesingle
Encoding: 39 39 2
Width: 236
VWidth: 0
Flags: W
HStem: 730 20G<56.2114 160> 730 20G<56.2114 160>
VStem: 0 160<544.313 720.476>
LayerCount: 2
Fore
SplineSet
0 337.868164062 m 1xa0
 0 657.142578125 l 2
 0 715.713867188 32.4228515625 740.223632812 80 750 c 1
 160 750 l 1
 160 566.439453125 l 2
 160 523.58203125 0 337.868164062 0 337.868164062 c 1xa0
EndSplineSet
EndChar

StartChar: parenleft
Encoding: 40 40 3
Width: 350
VWidth: 0
Flags: W
HStem: -0 21G<200 280> -0 21G<200 280> 730 20G<200 280> 730 20G<200 280>
VStem: 0 160<275.876 474.124>
LayerCount: 2
Fore
SplineSet
200 750 m 1xa8
 280 750 l 1
 280 610 l 1
 280 610 160 516.666992188 160 375 c 0
 160 233.333007812 280 140 280 140 c 1
 280 -0 l 1
 200 -0 l 1
 200 -0 0 159.76171875 0 375 c 0
 0 590.23828125 200 750 200 750 c 1xa8
EndSplineSet
EndChar

StartChar: parenright
Encoding: 41 41 4
Width: 350
VWidth: 0
Flags: W
HStem: -0 21G<0 80> -0 21G<0 80> 730 20G<0 80> 730 20G<0 80>
VStem: 120 160<275.876 474.124>
LayerCount: 2
Fore
SplineSet
80 750 m 1xa8
 80 750 280 590.23828125 280 375 c 0
 280 159.76171875 80 -0 80 -0 c 1
 0 -0 l 1
 0 140 l 1
 0 140 120 233.333007812 120 375 c 0
 120 516.666992188 0 610 0 610 c 1
 0 750 l 1
 80 750 l 1xa8
EndSplineSet
EndChar

StartChar: comma
Encoding: 44 44 5
Width: 260
VWidth: 0
Flags: W
VStem: 13 160<6.4451 182.608>
LayerCount: 2
Fore
SplineSet
13 -200 m 1
 13 119.275390625 l 2
 13 177.846679688 45.4228515625 202.35546875 93 212.131835938 c 1
 173 212.131835938 l 1
 173 28.5712890625 l 2
 173 -14.2861328125 13 -200 13 -200 c 1
EndSplineSet
EndChar

StartChar: hyphen
Encoding: 45 45 6
Width: 550
VWidth: 0
Flags: W
HStem: 295 160<0 470>
LayerCount: 2
Fore
SplineSet
470 455 m 1
 470 295 l 1
 0 295 l 1
 0 455 l 1
 470 455 l 1
EndSplineSet
EndChar

StartChar: period
Encoding: 46 46 7
Width: 260
VWidth: 0
Flags: W
HStem: 14 186<33.8434 152.157>
VStem: 0 186<47.8434 166.157>
LayerCount: 2
Fore
SplineSet
93 200 m 0
 144.362304688 200 186 158.362304688 186 107 c 0
 186 55.6376953125 144.362304688 14 93 14 c 0
 41.6376953125 14 0 55.6376953125 0 107 c 0
 0 158.362304688 41.6376953125 200 93 200 c 0
EndSplineSet
EndChar

StartChar: zero
Encoding: 48 48 8
Width: 640
VWidth: 0
Flags: W
HStem: 0.201172 162.733<164.975 409.661> 585.945 162.197<166.913 409.194>
VStem: 0 162.097<163.954 582.738> 414.028 162.097<163.89 582.794>
LayerCount: 2
Fore
SplineSet
116.0078125 4.6396484375 m 0
 92.7001953125 10.8056640625 70.9150390625 22.1904296875 52.7431640625 37.701171875 c 0
 20.8330078125 70.0234375 0 116.495117188 0 153.090820312 c 2
 0 598.384765625 l 2
 0 660.930664062 45.4267578125 708.909179688 80.9287109375 728.065429688 c 0
 121.147460938 748.930664062 113.016601562 748.142578125 288.0625 748.142578125 c 0
 463.108398438 748.142578125 454.977539062 748.930664062 495.196289062 728.065429688 c 1
 540.252929688 697.998046875 576.125 658.228515625 576.125 598.384765625 c 2
 576.125 153.090820312 l 2
 576.125 93.740234375 538.879882812 31.6865234375 468.46484375 6.509765625 c 0
 451.829101562 0.8642578125 449.0078125 0.7626953125 293.252929688 0.201171875 c 0
 144.075195312 -0.3369140625 133.856445312 -0.0810546875 116.0078125 4.6396484375 c 0
414.028320312 195.708984375 m 0
 413.58984375 317.072265625 413.109375 428.434570312 412.629882812 549.797851562 c 0
 412.629882812 567.552734375 396.629882812 585.9453125 380.873046875 585.9453125 c 2
 195.250976562 585.9453125 l 2
 181.655273438 585.9453125 163.495117188 569.668945312 163.495117188 549.797851562 c 0
 163 428.434570312 162.549804688 317.072265625 162.096679688 195.708984375 c 0
 162.096679688 177.403320312 174.698242188 162.934570312 190.87109375 162.934570312 c 2
 385.25390625 162.934570312 l 2
 402.548828125 162.934570312 414.028320312 179.893554688 414.028320312 195.708984375 c 0
EndSplineSet
EndChar

StartChar: one
Encoding: 49 49 9
Width: 350
VWidth: 0
Flags: W
HStem: -0 21G<95.7139 255.714> -0 21G<95.7139 255.714> 730 20G<86.2272 255.714> 730 20G<86.2272 255.714>
VStem: 95.7139 160<0 535.39>
LayerCount: 2
Fore
SplineSet
95.7138671875 750 m 1xa8
 255.713867188 750 l 1
 255.713867188 -0 l 1
 95.7138671875 -0 l 1
 95.7138671875 -0 95.7138671875 385.194335938 95.7138671875 500 c 0
 95.7138671875 557.15234375 0 548.213867188 0 548.213867188 c 1
 95.7138671875 750 l 1xa8
EndSplineSet
EndChar

StartChar: two
Encoding: 50 50 10
Width: 500
VWidth: 0
Flags: W
HStem: -0 163.214<205.92 430.573> 587.919 162.081<107.581 233.342>
VStem: 0 203.073<132.34 234.453> 236.881 200.516<514.114 610.652>
LayerCount: 2
Fore
SplineSet
430.573242188 -0 m 1
 165.16015625 -0 l 2
 119.198242188 -0 73.7412109375 18.193359375 46.9716796875 44.9619140625 c 0
 20.203125 71.7314453125 0 107.591796875 0 157.088867188 c 0
 0 206.5859375 22.2236328125 237.901367188 50.0029296875 275.276367188 c 0
 77.7822265625 312.65234375 221.860351562 508.036132812 227.952148438 517.569335938 c 0
 234.16796875 527.295898438 236.880859375 536.180664062 236.880859375 551.028320312 c 0
 236.880859375 568.26171875 222.749023438 587.918945312 202.030273438 587.918945312 c 2
 107.581054688 587.918945312 l 1
 9.5966796875 750 l 1
 274.76171875 750 l 2
 319.208007812 750 361.987304688 734.0390625 392.444335938 703.581054688 c 0
 422.901367188 673.124023438 437.396484375 636.340820312 437.396484375 595.495117188 c 0
 437.396484375 568.220703125 438.40625 547.0078125 407.091796875 500 c 0
 375.776367188 452.9921875 235.674804688 264.68359375 215.700195312 237.049804688 c 0
 205.254882812 222.600585938 203.073242188 213.27734375 203.073242188 198.857421875 c 0
 203.073242188 181 217.573242188 163.213867188 234.715820312 163.213867188 c 2
 430.573242188 163.213867188 l 1
 430.573242188 -0 l 1
EndSplineSet
EndChar

StartChar: three
Encoding: 51 51 11
Width: 500
VWidth: 0
Flags: W
HStem: -0 163.215<0 224.653> 587.92 162.08<97.9844 223.746>
VStem: 227.5 203.074<132.341 234.454 518.208 615.919>
LayerCount: 2
Fore
SplineSet
0 750 m 1
 265.1640625 750 l 2
 309.610351562 750 352.390625 734.0390625 382.84765625 703.58203125 c 0
 413.3046875 673.125 427.798828125 636.341796875 427.798828125 595.49609375 c 0
 427.798828125 568.221679688 428.80859375 547.0078125 397.494140625 500 c 0
 384.673828125 480.754882812 302.168945312 423.205078125 281.26953125 394.576171875 c 1
 306.079101562 360.926757812 370.495117188 288.833007812 380.5703125 275.27734375 c 0
 408.349609375 237.901367188 430.57421875 206.586914062 430.57421875 157.08984375 c 0
 430.57421875 107.592773438 410.370117188 71.7314453125 383.6015625 44.962890625 c 0
 356.833007812 18.193359375 311.375976562 -0 265.4140625 -0 c 2
 0 -0 l 1
 0 163.21484375 l 1
 195.857421875 163.21484375 l 2
 213 163.21484375 227.5 181 227.5 198.857421875 c 0
 227.5 213.27734375 225.318359375 222.6015625 214.873046875 237.05078125 c 0
 178.66015625 286.912109375 138.103515625 347.771484375 97.984375 394.576171875 c 1
 148.817382812 427.638671875 183.606445312 467.717773438 218.35546875 517.5703125 c 0
 224.571289062 527.296875 227.28515625 536.180664062 227.28515625 551.02734375 c 0
 227.28515625 568.260742188 213.15234375 587.919921875 192.43359375 587.919921875 c 2
 97.984375 587.919921875 l 1
 0 750 l 1
EndSplineSet
EndChar

StartChar: four
Encoding: 52 52 12
Width: 576
VWidth: 0
Flags: W
HStem: -0 21G<306.943 466.943> -0 21G<306.943 466.943> 180 163.15<167.052 306.943> 730 20G<0 23.3418> 730 20G<0 23.3418>
VStem: 0 163.393<346.295 610> 306.943 160<0 180 343.15 500>
LayerCount: 2
Fore
SplineSet
0 750 m 1xb6
 163.392578125 610 l 1
 164.170898438 427.57421875 163.392578125 565.216796875 163.392578125 382.7578125 c 0
 163.392578125 356.74609375 181.856445312 341.33984375 205.525390625 343.150390625 c 2
 306.943359375 343.150390625 l 1
 306.943359375 500 l 1
 466.943359375 500 l 1
 466.943359375 343.150390625 l 1
 561.94921875 180 l 1
 466.943359375 180 l 1
 466.943359375 -0 l 1
 306.943359375 -0 l 1
 306.943359375 180 l 1
 155.6640625 180 l 2
 59.2353515625 180 0 257.52734375 0 349.2109375 c 2
 0 750 l 1xb6
EndSplineSet
EndChar

StartChar: five
Encoding: 53 53 13
Width: 640
VWidth: 0
Flags: W
HStem: -0 163.15<95.0059 394.908> 320 163.15<167.042 392.809> 586.908 163.092<168.65 471.078>
VStem: 0 163.393<487.098 582.076> 398.557 163.393<167.098 314.936>
LayerCount: 2
Fore
SplineSet
167.9375 750 m 2
 569.0625 750 l 1
 471.078125 586.908203125 l 1
 203.990234375 586.908203125 l 2
 181.008789062 586.908203125 163.392578125 566.958007812 163.392578125 543.9765625 c 2
 163.392578125 522.7578125 l 2
 163.392578125 496.74609375 181.787109375 483.150390625 205.525390625 483.150390625 c 0
 268.354492188 483.150390625 331.182617188 483.150390625 394.01171875 483.150390625 c 0
 486.9453125 483.150390625 561.94921875 416.118164062 561.94921875 325.515625 c 2
 561.94921875 169.2109375 l 2
 561.94921875 77.52734375 502.713867188 -0 406.28515625 -0 c 2
 0 -0 l 1
 95.005859375 163.150390625 l 1
 356.423828125 163.150390625 l 2
 380.162109375 163.150390625 398.556640625 176.74609375 398.556640625 202.7578125 c 2
 398.556640625 275.9765625 l 2
 398.556640625 298.958007812 380.940429688 320 357.958984375 320 c 0
 290.52734375 320 223.095703125 320 155.6640625 320 c 0
 59.2353515625 320 0 397.52734375 0 489.2109375 c 2
 0 593.515625 l 2
 0 684.118164062 75.00390625 750 167.9375 750 c 2
EndSplineSet
EndChar

StartChar: six
Encoding: 54 54 14
Width: 640
VWidth: 0
Flags: W
HStem: -0 163.15<166.209 394.908> 320 163.15<170.866 392.809> 586.908 163.092<168.65 471.078>
VStem: 0 163.393<166.628 313.299 487.098 582.076> 398.557 163.393<167.098 314.936>
LayerCount: 2
Fore
SplineSet
167.9375 750 m 2
 569.0625 750 l 1
 471.078125 586.908203125 l 1
 203.990234375 586.908203125 l 2
 181.008789062 586.908203125 163.392578125 566.95703125 163.392578125 543.9765625 c 2
 163.392578125 522.7578125 l 2
 163.392578125 496.74609375 181.787109375 483.150390625 205.525390625 483.150390625 c 2
 394.01171875 483.150390625 l 2
 486.9453125 483.150390625 561.94921875 416.118164062 561.94921875 325.515625 c 2
 561.94921875 169.2109375 l 2
 561.94921875 77.52734375 502.713867188 -0 406.28515625 -0 c 2
 406.28515625 -0 230.3125 -0 163.392578125 -0 c 0
 76.31640625 -0 0 40.1484375 0 169.2109375 c 0
 0 275.877929688 0 489.2109375 0 489.2109375 c 1
 0 593.515625 l 2
 0 684.118164062 75.00390625 750 167.9375 750 c 2
205.525390625 320 m 2
 183.30859375 320 163.392578125 296.2890625 163.392578125 275.9765625 c 2
 163.392578125 202.7578125 l 2
 163.392578125 183.482421875 170.990234375 163.150390625 205.525390625 163.150390625 c 2
 356.423828125 163.150390625 l 2
 380.162109375 163.150390625 398.556640625 176.74609375 398.556640625 202.7578125 c 2
 398.556640625 275.9765625 l 2
 398.556640625 298.95703125 380.940429688 320 357.958984375 320 c 2
 205.525390625 320 l 2
EndSplineSet
EndChar

StartChar: seven
Encoding: 55 55 15
Width: 640
VWidth: 0
Flags: W
HStem: -0 21G<398.168 561.949> -0 21G<398.168 561.949> 586.851 163.149<95.0068 394.909>
VStem: 398.558 163.392<0 582.903>
LayerCount: 2
Fore
SplineSet
0 750 m 1xb0
 406.286132812 750 l 2
 502.713867188 750 561.94921875 672.47265625 561.94921875 580.7890625 c 0
 561.94921875 387.192382812 561.94921875 193.596679688 561.94921875 -0 c 1
 398.557617188 -0 l 1
 397.779296875 182.42578125 398.557617188 364.783203125 398.557617188 547.2421875 c 0
 398.557617188 573.25390625 380.163085938 586.850585938 356.423828125 586.850585938 c 2
 95.0068359375 586.850585938 l 1
 0 750 l 1xb0
EndSplineSet
EndChar

StartChar: eight
Encoding: 56 56 16
Width: 640
VWidth: 0
Flags: W
HStem: 1.29688 162.734<164.974 409.661> 299.898 184.893<166.936 409.11> 587.803 162.197<166.913 409.193>
VStem: 0 162.096<165.05 296.691 485.81 584.595> 412.629 1.39844<523.016 546.205> 414.027 162.098<164.987 196.805 263.75 296.747 485.747 517.566 551.654 584.651>
LayerCount: 2
Fore
SplineSet
288.0625 750 m 0xf4
 463.108398438 750 454.9765625 750.787109375 495.1953125 729.921875 c 1
 540.251953125 699.853515625 576.125 660.0859375 576.125 600.2421875 c 2
 576.125 474.947265625 l 2
 576.125 446.219726562 567.3984375 416.859375 550.408203125 391.353515625 c 1
 566.264648438 369.528320312 576.125 343.692382812 576.125 312.337890625 c 2
 576.125 154.1875 l 2
 576.125 94.8369140625 538.879882812 32.7822265625 468.46484375 7.60546875 c 0
 451.829101562 1.9599609375 449.006835938 1.8583984375 293.251953125 1.296875 c 0
 144.07421875 0.7587890625 133.856445312 1.0146484375 116.0078125 5.736328125 c 0
 92.7001953125 11.9013671875 70.9140625 23.2861328125 52.7421875 38.796875 c 0
 20.83203125 71.119140625 0 117.591796875 0 154.1875 c 2
 0 312.337890625 l 2
 0 343.297851562 11.1376953125 370.680664062 26.685546875 392.7734375 c 1
 9.974609375 419.588867188 0 449.630859375 0 474.947265625 c 2
 0 600.2421875 l 2
 0 662.788085938 45.42578125 710.765625 80.927734375 729.921875 c 0
 121.146484375 750.787109375 113.016601562 750 288.0625 750 c 0xf4
195.251953125 587.802734375 m 2
 181.65625 587.802734375 163.494140625 571.526367188 163.494140625 551.654296875 c 0
 163 430.291992188 162.549804688 638.928710938 162.095703125 517.56640625 c 0
 162.095703125 499.260742188 174.698242188 484.791015625 190.87109375 484.791015625 c 2
 385.25390625 484.791015625 l 2
 402.548828125 484.791015625 414.02734375 501.750976562 414.02734375 517.56640625 c 0xf4
 413.588867188 638.9296875 413.108398438 430.291992188 412.62890625 551.654296875 c 0xf8
 412.62890625 569.41015625 396.62890625 587.802734375 380.873046875 587.802734375 c 2
 195.251953125 587.802734375 l 2
195.251953125 299.8984375 m 2
 181.65625 299.8984375 163.494140625 283.622070312 163.494140625 263.75 c 0
 163 142.387695312 162.549804688 318.166992188 162.095703125 196.8046875 c 0
 162.095703125 178.499023438 174.698242188 164.03125 190.87109375 164.03125 c 2
 385.25390625 164.03125 l 2
 402.548828125 164.03125 414.02734375 180.989257812 414.02734375 196.8046875 c 0xf4
 413.588867188 318.16796875 413.108398438 142.387695312 412.62890625 263.75 c 0xf8
 412.62890625 281.505859375 396.62890625 299.8984375 380.873046875 299.8984375 c 2
 195.251953125 299.8984375 l 2
EndSplineSet
EndChar

StartChar: nine
Encoding: 57 57 17
Width: 640
VWidth: 0
Flags: W
HStem: -0 163.092<97.9844 400.413> 266.85 163.15<176.253 398.197> 586.85 163.15<174.155 402.854>
VStem: 7.11328 163.393<435.064 582.902> 405.67 163.393<167.924 262.902 436.701 583.372>
LayerCount: 2
Fore
SplineSet
401.125 -0 m 2
 0 -0 l 1
 97.984375 163.091796875 l 1
 365.072265625 163.091796875 l 2
 388.053710938 163.091796875 405.669921875 183.041992188 405.669921875 206.0234375 c 2
 405.669921875 227.2421875 l 2
 405.669921875 253.25390625 387.275390625 266.849609375 363.537109375 266.849609375 c 2
 175.05078125 266.849609375 l 2
 82.1171875 266.849609375 7.11328125 333.881835938 7.11328125 424.484375 c 2
 7.11328125 580.7890625 l 2
 7.11328125 672.47265625 66.3486328125 750 162.77734375 750 c 2
 162.77734375 750 338.75 750 405.669921875 750 c 0
 492.74609375 750 569.0625 709.8515625 569.0625 580.7890625 c 0
 569.0625 474.122070312 569.0625 260.7890625 569.0625 260.7890625 c 1
 569.0625 156.484375 l 2
 569.0625 65.8818359375 494.05859375 -0 401.125 -0 c 2
363.537109375 430 m 2
 385.75390625 430 405.669921875 453.7109375 405.669921875 474.0234375 c 2
 405.669921875 547.2421875 l 2
 405.669921875 566.517578125 398.072265625 586.849609375 363.537109375 586.849609375 c 2
 212.638671875 586.849609375 l 2
 188.900390625 586.849609375 170.505859375 573.25390625 170.505859375 547.2421875 c 2
 170.505859375 474.0234375 l 2
 170.505859375 451.041992188 188.122070312 430 211.103515625 430 c 2
 363.537109375 430 l 2
EndSplineSet
EndChar

StartChar: less
Encoding: 60 60 18
Width: 600
VWidth: 0
Flags: HW
LayerCount: 2
Fore
SplineSet
595.713867188 716.673828125 m 1
 595.713867188 551.413085938 l 1
 259.84765625 374.836914062 l 1
 595.713867188 198.260742188 l 1
 595.713867188 33 l 1
 0 374.836914062 l 1
 595.713867188 716.673828125 l 1
EndSplineSet
EndChar

StartChar: greater
Encoding: 62 62 19
Width: 600
VWidth: 0
Flags: HW
LayerCount: 2
Fore
SplineSet
595.713867188 374.836914062 m 1
 0 33 l 1
 0 198.260742188 l 1
 335.866210938 374.836914062 l 1
 0 551.413085938 l 1
 0 716.673828125 l 1
 595.713867188 374.836914062 l 1
EndSplineSet
EndChar

StartChar: question
Encoding: 63 63 20
Width: 576
VWidth: 0
Flags: W
HStem: 14 186<200.186 318.478> 587.92 162.08<114.697 261.906>
VStem: 166.332 186<47.8544 166.146> 179.332 160<266 376.875> 266.049 234.715<519.6 615.919>
LayerCount: 2
Fore
SplineSet
0 750 m 1xc8
 310.390625 750 l 2
 362.41796875 750 412.493164062 734.0390625 448.14453125 703.58203125 c 0
 483.795898438 673.125 500.763671875 636.341796875 500.763671875 595.49609375 c 0xc8
 500.763671875 568.221679688 501.946289062 547.0078125 465.291015625 500 c 0
 428.635742188 452.9921875 377.495117188 397.5390625 354.11328125 369.90625 c 0
 341.88671875 355.45703125 339.33203125 346.134765625 339.33203125 331.71484375 c 2
 339.33203125 220.2109375 l 1
 324.462890625 245.447265625 288.623046875 265.959960938 259.33203125 266 c 0
 230.04296875 265.961914062 194.203125 245.453125 179.33203125 220.220703125 c 1
 179.33203125 369.9453125 l 2xd0
 179.33203125 412.372070312 179.760742188 420.35546875 200.15625 448.134765625 c 0
 229.475585938 488.068359375 248.465820312 508.037109375 255.59765625 517.5703125 c 0
 262.874023438 527.296875 266.048828125 536.180664062 266.048828125 551.02734375 c 0
 266.048828125 568.260742188 249.5078125 587.919921875 225.255859375 587.919921875 c 2
 114.697265625 587.919921875 l 1
 0 750 l 1xc8
259.33203125 200 m 0
 310.66796875 200 352.33203125 158.3359375 352.33203125 107 c 0
 352.33203125 55.6640625 310.66796875 14 259.33203125 14 c 0
 207.99609375 14 166.33203125 55.6640625 166.33203125 107 c 0xe0
 166.33203125 158.3359375 207.99609375 200 259.33203125 200 c 0
EndSplineSet
EndChar

StartChar: A
Encoding: 65 65 21
Width: 567
VWidth: 0
Flags: W
HStem: -0 21G<0 163.066 337.576 500.643> -0 21G<0 163.066 337.576 500.643> 285.715 163.213<163.066 337.576> 586.428 163.572<169.61 331.033>
VStem: 0 163.066<0 285.715 448.928 580.636> 337.576 163.066<0 285.715 448.928 580.636>
LayerCount: 2
Fore
SplineSet
173.21484375 750 m 2xbc
 327.427734375 750 l 2
 428.395507812 750 500.642578125 685.58203125 500.642578125 591.072265625 c 2
 500.642578125 -0 l 1
 337.576171875 -0 l 1
 337.576171875 285.71484375 l 1
 163.06640625 285.71484375 l 1
 163.06640625 -0 l 1
 0 -0 l 1
 0 591.072265625 l 2
 0 685.58203125 72.2470703125 750 173.21484375 750 c 2xbc
203.927734375 586.427734375 m 2
 179.7109375 586.427734375 163.06640625 561.6328125 163.06640625 541.25 c 2
 163.06640625 448.927734375 l 1
 337.576171875 448.927734375 l 1
 337.576171875 541.25 l 2
 337.576171875 561.6328125 320.931640625 586.427734375 296.71484375 586.427734375 c 2
 203.927734375 586.427734375 l 2
EndSplineSet
EndChar

StartChar: B
Encoding: 66 66 22
Width: 567
VWidth: 0
Flags: W
HStem: -0 21G<0 393.708> -0 21G<0 393.708> 336.15 99.9941<163.244 214.836> 586.15 163.85<162.887 260.117>
VStem: 0 162.887<186.145 336.066 436.229 586.15> 264.154 205.062<515.539 582.44>
LayerCount: 2
Fore
SplineSet
0 750 m 1xbc
 294.96484375 750 l 2
 388.909179688 750 469.216796875 687.959960938 469.216796875 593.98046875 c 0
 469.216796875 500.000976562 374.26171875 419.22265625 374.26171875 419.22265625 c 1
 374.26171875 419.22265625 513.662109375 241.436523438 513.662109375 161.634765625 c 0
 513.662109375 81.8330078125 452.043945312 -0 335.37109375 -0 c 2
 0 -0 l 1
 0 750 l 1xbc
181.828125 586.150390625 m 2
 169.201171875 586.150390625 162.88671875 579.625 162.88671875 567.755859375 c 2
 162.88671875 500 l 1
 162.88671875 465.69140625 l 2
 162.88671875 438.669921875 173.028320312 436.14453125 188.43359375 436.14453125 c 0
 208.383789062 436.14453125 264.154296875 522.21875 264.154296875 535.603515625 c 2
 264.154296875 551.552734375 l 2
 264.154296875 566.452148438 244.962890625 586.150390625 229.810546875 586.150390625 c 2
 181.828125 586.150390625 l 2
188.43359375 336.150390625 m 0
 173.028320312 336.150390625 162.88671875 333.625 162.88671875 306.603515625 c 2
 162.88671875 272.294921875 l 1
 162.88671875 204.5390625 l 2
 162.88671875 192.669921875 169.201171875 186.14453125 181.828125 186.14453125 c 2
 229.810546875 186.14453125 l 2
 244.962890625 186.14453125 264.154296875 205.842773438 264.154296875 220.7421875 c 2
 264.154296875 236.69140625 l 2
 264.154296875 250.076171875 208.383789062 336.150390625 188.43359375 336.150390625 c 0
EndSplineSet
EndChar

StartChar: C
Encoding: 67 67 23
Width: 523
VWidth: 0
Flags: W
HStem: 0 163.149<167.042 466.943> 586.909 163.091<168.65 331.077>
VStem: 0 163.393<167.097 582.077>
LayerCount: 2
Fore
SplineSet
561.94921875 0 m 1
 155.6640625 0 l 2
 59.2353515625 0 0 77.52734375 0 169.2109375 c 2
 0 593.515625 l 2
 0 684.118164062 75.00390625 750 167.9375 750 c 2
 429.0625 750 l 1
 331.077148438 586.909179688 l 1
 203.990234375 586.909179688 l 2
 181.008789062 586.909179688 163.392578125 566.958007812 163.392578125 543.977539062 c 2
 163.392578125 202.7578125 l 2
 163.392578125 176.74609375 181.787109375 163.149414062 205.525390625 163.149414062 c 2
 466.943359375 163.149414062 l 1
 561.94921875 0 l 1
EndSplineSet
EndChar

StartChar: D
Encoding: 68 68 24
Width: 570
VWidth: 0
Flags: W
HStem: -0 163.215<163.488 328.144> 586.965 163.035<163.488 330.3>
VStem: 0 163.488<163.215 586.965> 333.131 162.855<168.211 584.362>
LayerCount: 2
Fore
SplineSet
-94.953125 750 m 1
 341.431640625 750 l 2
 441.94140625 750 495.986328125 665.196289062 495.986328125 587.919921875 c 2
 495.986328125 159.615234375 l 2
 495.986328125 77.2880859375 431.840820312 -0 325.26953125 -0 c 2
 0 -0 l 1
 0 587.919921875 l 1
 -94.953125 750 l 1
163.48828125 586.96484375 m 1
 163.48828125 163.21484375 l 1
 292.23828125 163.21484375 l 2
 312.059570312 163.21484375 333.130859375 179.46484375 333.130859375 204.822265625 c 2
 333.130859375 551.0703125 l 2
 333.130859375 569.999023438 319.203125 586.96484375 297.595703125 586.96484375 c 2
 163.48828125 586.96484375 l 1
EndSplineSet
EndChar

StartChar: E
Encoding: 69 69 25
Width: 523
VWidth: 0
Flags: W
HStem: -0 162.645<165.506 465.681> 317.45 161.877<162.447 284.105> 587.161 162.839<162.382 442.699>
VStem: -0.25293 162.383<166.987 317.45 479.327 587.161>
LayerCount: 2
Fore
SplineSet
0 750 m 1
 442.69921875 750 l 1
 442.69921875 587.161132812 l 1
 181.575195312 587.161132812 l 2
 162.88671875 587.161132812 162.381835938 573.776367188 162.381835938 566.706054688 c 2
 162.381835938 500 l 2
 162.381835938 488.418945312 170.2109375 479.327148438 183.08984375 479.327148438 c 2
 376.534179688 479.327148438 l 1
 284.10546875 317.450195312 l 1
 181.0703125 317.450195312 l 2
 168.948242188 317.450195312 162.129882812 308.359375 162.129882812 298.2578125 c 2
 162.129882812 197.495117188 l 2
 162.129882812 183.352539062 177.282226562 162.64453125 197.737304688 162.64453125 c 2
 465.680664062 162.64453125 l 1
 559.979492188 -0 l 1
 164.655273438 -0 l 2
 66.6728515625 -0 -0.966796875 63.3359375 -0.2529296875 177.544921875 c 0
 0.0771484375 230.32421875 0 750 0 750 c 1
EndSplineSet
EndChar

StartChar: F
Encoding: 70 70 26
Width: 512
VWidth: 0
Flags: W
HStem: -0 21G<0 162.13> -0 21G<0 162.13> 317.45 161.877<162.447 284.105> 587.161 162.839<162.382 442.699>
VStem: 0 162.13<0 317.45 479.327 587.161>
LayerCount: 2
Fore
SplineSet
0 750 m 1xb8
 442.69921875 750 l 1
 442.69921875 587.161132812 l 1
 181.575195312 587.161132812 l 2
 162.88671875 587.161132812 162.381835938 573.776367188 162.381835938 566.706054688 c 2
 162.381835938 500 l 2
 162.381835938 488.418945312 170.2109375 479.327148438 183.08984375 479.327148438 c 2
 376.534179688 479.327148438 l 1
 284.10546875 317.450195312 l 1
 181.0703125 317.450195312 l 2
 168.948242188 317.450195312 162.129882812 308.359375 162.129882812 298.2578125 c 2
 162.129882812 -0 l 1
 0 -0 l 1
 0 124.826171875 0.044921875 395.041992188 0 750 c 1xb8
EndSplineSet
EndChar

StartChar: G
Encoding: 71 71 27
Width: 523
VWidth: 0
Flags: W
HStem: -0 163.15<167.042 339.412> 586.908 163.092<168.65 331.078>
VStem: 0 163.393<167.098 582.076> 339.412 127.531<163.15 316.797>
LayerCount: 2
Fore
SplineSet
167.9375 750 m 2
 429.0625 750 l 1
 331.078125 586.908203125 l 1
 203.990234375 586.908203125 l 2
 181.008789062 586.908203125 163.392578125 566.958007812 163.392578125 543.9765625 c 2
 163.392578125 202.7578125 l 2
 163.392578125 176.74609375 181.787109375 163.150390625 205.525390625 163.150390625 c 2
 339.412109375 163.150390625 l 1
 339.412109375 281.31640625 l 2
 339.412109375 298.489257812 331.836914062 317.450195312 312.138671875 317.450195312 c 2
 239.912109375 317.450195312 l 1
 304.5625 440.71875 l 1
 466.943359375 440.71875 l 1
 466.943359375 163.150390625 l 1
 561.94921875 -0 l 1
 155.6640625 -0 l 2
 59.2353515625 -0 0 77.52734375 0 169.2109375 c 2
 0 593.515625 l 2
 0 684.118164062 75.00390625 750 167.9375 750 c 2
EndSplineSet
EndChar

StartChar: H
Encoding: 72 72 28
Width: 512
VWidth: 0
Flags: W
HStem: -0 21G<0 162.129 280.404 442.533> -0 21G<0 162.129 280.404 442.533> 317.451 161.877<162.446 280.088> 730 20G<0 162.381 280.152 442.533> 730 20G<0 162.381 280.152 442.533>
VStem: 0 162.129<0 317.451 479.328 750> 280.404 162.129<0 317.451 479.328 750>
LayerCount: 2
Fore
SplineSet
162.380859375 750 m 1xb6
 162.380859375 500 l 2
 162.380859375 488.418945312 170.209960938 479.328125 183.08984375 479.328125 c 2
 259.443359375 479.328125 l 2
 272.323242188 479.328125 280.15234375 488.418945312 280.15234375 500 c 2
 280.15234375 750 l 1
 442.533203125 750 l 1
 442.48828125 395.041992188 442.533203125 124.826171875 442.533203125 -0 c 1
 280.404296875 -0 l 1
 280.404296875 298.2578125 l 2
 280.404296875 308.359375 273.584960938 317.451171875 261.462890625 317.451171875 c 2
 181.068359375 317.451171875 l 2
 168.946289062 317.451171875 162.12890625 308.359375 162.12890625 298.2578125 c 2
 162.12890625 -0 l 1
 0 -0 l 1
 0 124.826171875 0.044921875 395.041992188 0 750 c 1
 162.380859375 750 l 1xb6
EndSplineSet
EndChar

StartChar: I
Encoding: 73 73 29
Width: 240
VWidth: 0
Flags: W
HStem: -0 21G<0 160> -0 21G<0 160> 730 20G<0 160> 730 20G<0 160>
VStem: 0 160<0 750>
LayerCount: 2
Fore
SplineSet
0 750 m 1xa8
 160 750 l 1
 160 -0 l 1
 0 -0 l 1
 0 750 l 1xa8
EndSplineSet
EndChar

StartChar: J
Encoding: 74 74 30
Width: 460
VWidth: 0
Flags: W
HStem: 0 163.149<5.00684 217.766> 730 20G<82.832 384.807> 730 20G<82.832 384.807>
VStem: 221.415 163.392<167.097 582.052>
LayerCount: 2
Fore
SplineSet
-90 0 m 1xd0
 5.0068359375 163.149414062 l 1
 179.28125 163.149414062 l 2
 203.01953125 163.149414062 221.415039062 176.74609375 221.415039062 202.7578125 c 2
 221.415039062 543.977539062 l 2
 221.415039062 566.823242188 204.220703125 586.909179688 180.81640625 586.909179688 c 1
 82.83203125 750 l 1
 384.806640625 750 l 1
 384.806640625 169.2109375 l 2
 384.806640625 77.52734375 325.571289062 0 229.142578125 0 c 2
 -90 0 l 1xd0
EndSplineSet
EndChar

StartChar: K
Encoding: 75 75 31
Width: 550
VWidth: 0
Flags: W
HStem: -0 21G<0 160 446.393 488.314> -0 21G<0 160 446.393 488.314> 413.162 22.9102<164.332 199.046> 730 20G<0 160 426.693 468.441> 730 20G<0 160 426.693 468.441>
VStem: 0 160<0 412.327 437.163 750>
LayerCount: 2
Fore
SplineSet
0 750 m 1xb4
 160 750 l 1
 160 460 l 2
 160 443.5625 173.815429688 436.072265625 193.21484375 436.072265625 c 0
 202.143554688 436.072265625 426.693359375 750 426.693359375 750 c 1
 468.44140625 750 l 1
 468.44140625 539.9375 l 1
 379.72265625 417.708984375 l 1
 488.314453125 239.416015625 l 1
 488.314453125 -0 l 1
 446.392578125 -0 l 1
 446.392578125 -0 202.528320312 413.162109375 190.447265625 413.162109375 c 0
 171.759765625 413.162109375 160 403.56640625 160 387.404296875 c 2
 160 -0 l 1
 0 -0 l 1
 0 750 l 1xb4
EndSplineSet
EndChar

StartChar: L
Encoding: 76 76 32
Width: 523
VWidth: 0
Flags: W
HStem: 0 163.149<167.042 466.943> 730 20G<0 163.782> 730 20G<0 163.782>
VStem: 0 163.393<167.097 750>
LayerCount: 2
Fore
SplineSet
561.94921875 0 m 1xd0
 155.6640625 0 l 2
 59.2353515625 0 0 77.52734375 0 169.2109375 c 0
 0 362.807617188 0 556.403320312 0 750 c 1
 163.392578125 750 l 1
 164.170898438 567.57421875 163.392578125 385.216796875 163.392578125 202.7578125 c 0
 163.392578125 176.74609375 181.787109375 163.149414062 205.525390625 163.149414062 c 2
 466.943359375 163.149414062 l 1
 561.94921875 0 l 1xd0
EndSplineSet
EndChar

StartChar: M
Encoding: 77 77 33
Width: 800
VWidth: 0
Flags: W
HStem: -0 21G<0 163.149 586.909 750> -0 21G<0 163.149 586.909 750> 730 20G<115.04 211.259 535.102 638.716> 730 20G<115.04 211.259 535.102 638.716>
VStem: 0 163.149<0 543.978> 586.909 163.091<0 543.978>
LayerCount: 2
Fore
SplineSet
0 -0 m 1xac
 0 593.515625 l 2
 0 689.944335938 66.9306640625 750 163.149414062 750 c 0
 259.368164062 750 373.3671875 500.4921875 373.3671875 500.4921875 c 1
 373.3671875 500.4921875 483.293945312 750 586.909179688 750 c 0
 690.5234375 750 750 686.44921875 750 593.515625 c 2
 750 -0 l 1
 586.909179688 -0 l 1
 586.909179688 543.977539062 l 2
 586.909179688 566.958007812 556.94921875 539.208984375 543.977539062 520.23828125 c 2
 373.3671875 270.731445312 l 1
 202.7578125 520.23828125 l 2
 188.076171875 541.709960938 163.149414062 567.715820312 163.149414062 543.977539062 c 2
 163.149414062 -0 l 1
 0 -0 l 1xac
EndSplineSet
EndChar

StartChar: N
Encoding: 78 78 34
Width: 800
VWidth: 0
Flags: W
HStem: -0 21G<0 163.15 518.922 638.718> -0 21G<0 163.15 518.922 638.718> 730 20G<115.041 230.47 586.91 750> 730 20G<115.041 230.47 586.91 750>
VStem: 0 163.15<0 543.977> 586.91 163.09<206.023 750>
LayerCount: 2
Fore
SplineSet
163.150390625 750 m 1xac
 297.790039062 737.102539062 427.861328125 345.225585938 543.978515625 229.76171875 c 1
 556.950195312 210.791992188 586.91015625 183.041992188 586.91015625 206.0234375 c 2
 586.91015625 750 l 1
 750 750 l 1
 750 156.484375 l 2
 750 63.55078125 690.525390625 -0 586.91015625 -0 c 1
 450.934570312 12.1494140625 320.231445312 400.080078125 202.7578125 520.23828125 c 1
 188.076171875 541.709960938 163.150390625 567.71484375 163.150390625 543.9765625 c 2
 163.150390625 -0 l 1
 0 -0 l 1
 0 593.515625 l 2
 0 689.944335938 66.931640625 750 163.150390625 750 c 1xac
EndSplineSet
EndChar

StartChar: O
Encoding: 79 79 35
Width: 640
VWidth: 0
Flags: W
HStem: 0.201172 162.733<164.975 409.661> 585.945 162.197<166.913 409.194>
VStem: 0 162.097<163.954 582.738> 414.028 162.097<163.89 582.794>
LayerCount: 2
Fore
SplineSet
116.0078125 4.6396484375 m 0
 92.7001953125 10.8056640625 70.9150390625 22.1904296875 52.7431640625 37.701171875 c 0
 20.8330078125 70.0234375 0 116.495117188 0 153.090820312 c 2
 0 598.384765625 l 2
 0 660.930664062 45.4267578125 708.909179688 80.9287109375 728.065429688 c 0
 121.147460938 748.930664062 113.016601562 748.142578125 288.0625 748.142578125 c 0
 463.108398438 748.142578125 454.977539062 748.930664062 495.196289062 728.065429688 c 1
 540.252929688 697.998046875 576.125 658.228515625 576.125 598.384765625 c 2
 576.125 153.090820312 l 2
 576.125 93.740234375 538.879882812 31.6865234375 468.46484375 6.509765625 c 0
 451.829101562 0.8642578125 449.0078125 0.7626953125 293.252929688 0.201171875 c 0
 144.075195312 -0.3369140625 133.856445312 -0.0810546875 116.0078125 4.6396484375 c 0
414.028320312 195.708984375 m 0
 413.58984375 317.072265625 413.109375 428.434570312 412.629882812 549.797851562 c 0
 412.629882812 567.552734375 396.629882812 585.9453125 380.873046875 585.9453125 c 2
 195.250976562 585.9453125 l 2
 181.655273438 585.9453125 163.495117188 569.668945312 163.495117188 549.797851562 c 0
 163 428.434570312 162.549804688 317.072265625 162.096679688 195.708984375 c 0
 162.096679688 177.403320312 174.698242188 162.934570312 190.87109375 162.934570312 c 2
 385.25390625 162.934570312 l 2
 402.548828125 162.934570312 414.028320312 179.893554688 414.028320312 195.708984375 c 0
EndSplineSet
EndChar

StartChar: P
Encoding: 80 80 36
Width: 640
VWidth: 0
Flags: W
HStem: -0 21G<0 162.129> -0 21G<0 162.129> 316.42 162.908<162.386 409.661> 586.506 163.494<162.383 411.407>
VStem: 0 162.129<0 316.292 479.328 586.37> 414.029 162.096<481.409 584.259>
LayerCount: 2
Fore
SplineSet
0 750 m 1xbc
 442.69921875 750 l 2
 503.362304688 749.0078125 576.125 671.122070312 576.125 598.9453125 c 2
 576.125 469.365234375 l 2
 576.125 410.014648438 538.879882812 347.959960938 468.46484375 322.783203125 c 0
 451.829101562 317.137695312 449.006835938 317.036132812 293.251953125 316.474609375 c 0
 235.776367188 316.267578125 199.057617188 316.181640625 174.453125 316.419921875 c 0
 166.499023438 313.770507812 162.12890625 306.33984375 162.12890625 298.2578125 c 2
 162.12890625 -0 l 1
 0 -0 l 1
 0 86.7734375 0.01171875 261.8359375 0.009765625 468.75390625 c 0
 0.0078125 468.95703125 0 469.163085938 0 469.365234375 c 2
 0 598.9453125 l 2
 0 599.114257812 0.0048828125 599.28125 0.005859375 599.44921875 c 0
 0.0029296875 652.594726562 0.0068359375 692.077148438 0 750 c 1xbc
175.111328125 586.505859375 m 2
 162.770507812 583.744140625 162.3828125 572.845703125 162.3828125 566.705078125 c 2
 162.3828125 500 l 2
 162.3828125 488.418945312 170.209960938 479.328125 183.08984375 479.328125 c 2
 376.53515625 479.328125 l 1
 376.466796875 479.208984375 l 1
 396.994140625 479.208984375 414.029296875 487.830078125 414.029296875 511.984375 c 0
 414.029296875 525.198242188 414.029296875 539.3359375 414.029296875 550.357421875 c 0
 414.029296875 574.541992188 396.62890625 586.505859375 380.873046875 586.505859375 c 2
 175.111328125 586.505859375 l 2
EndSplineSet
EndChar

StartChar: Q
Encoding: 81 81 37
Width: 640
VWidth: 0
Flags: W
HStem: 0.759766 162.734<164.974 412.209> 586.506 162.197<166.913 409.193>
VStem: 0 162.096<164.513 583.298> 414.027 162.098<164.45 583.355>
LayerCount: 2
Fore
SplineSet
288.0625 748.703125 m 0
 463.108398438 748.703125 454.9765625 749.490234375 495.1953125 728.625 c 1
 540.251953125 698.556640625 576.125 658.7890625 576.125 598.9453125 c 0
 576.125 450.513671875 576.125 302.08203125 576.125 153.650390625 c 0
 576.099609375 102.611328125 567.560546875 43.5615234375 539.92578125 -0 c 1
 508.204101562 -40.0341796875 414.02734375 -155.048828125 414.02734375 -155.048828125 c 1
 414.02734375 1.541015625 l 1
 389.868164062 1.1259765625 352.78125 0.974609375 293.251953125 0.759765625 c 0
 144.07421875 0.2216796875 133.856445312 0.4775390625 116.0078125 5.19921875 c 0
 92.7001953125 11.3642578125 70.9140625 22.7509765625 52.7421875 38.26171875 c 0
 20.83203125 70.583984375 0 117.0546875 0 153.650390625 c 2
 0 598.9453125 l 2
 0 661.491210938 45.42578125 709.46875 80.927734375 728.625 c 0
 121.146484375 749.490234375 113.016601562 748.703125 288.0625 748.703125 c 0
195.251953125 586.505859375 m 2
 181.65625 586.505859375 163.494140625 570.229492188 163.494140625 550.357421875 c 0
 163 428.995117188 162.549804688 317.631835938 162.095703125 196.26953125 c 0
 162.095703125 177.963867188 174.698242188 163.494140625 190.87109375 163.494140625 c 2
 385.25390625 163.494140625 l 2
 402.548828125 163.494140625 414.02734375 180.454101562 414.02734375 196.26953125 c 0
 413.588867188 317.6328125 413.108398438 428.995117188 412.62890625 550.357421875 c 0
 412.62890625 568.11328125 396.62890625 586.505859375 380.873046875 586.505859375 c 2
 195.251953125 586.505859375 l 2
EndSplineSet
EndChar

StartChar: R
Encoding: 82 82 38
Width: 550
VWidth: 0
Flags: W
HStem: -0 21G<0 160 446.393 488.314> -0 21G<0 160 446.393 488.314> 413.162 22.9102<164.332 199.565> 588.215 161.785<173.58 261.592>
VStem: 0 160<0 412.327 437.163 574.436>
LayerCount: 2
Fore
SplineSet
0 750 m 1xb8
 103.765625 750 207.53125 750 311.296875 750 c 0
 357.513671875 750 406.344726562 724.333007812 435.583984375 688.541015625 c 0
 462.700195312 655.34765625 474.551757812 606.646484375 468.44140625 564.22265625 c 0
 460.302734375 507.711914062 379.72265625 417.708984375 379.72265625 417.708984375 c 1
 488.314453125 239.416015625 l 1
 488.314453125 -0 l 1
 446.392578125 -0 l 1
 446.392578125 -0 202.528320312 413.162109375 190.447265625 413.162109375 c 0
 171.759765625 413.162109375 160 403.56640625 160 387.404296875 c 2
 160 -0 l 1
 0 -0 l 1
 0 750 l 1xb8
173.580078125 588.21484375 m 1
 160 574.435546875 l 1
 160 460 l 2
 160 443.5625 173.815429688 436.072265625 193.21484375 436.072265625 c 0
 202.143554688 436.072265625 265.263671875 523.505859375 265.263671875 531.142578125 c 2
 265.263671875 554.142578125 l 2
 265.263671875 567.103515625 248.6875 588.21484375 227.2890625 588.21484375 c 2
 173.580078125 588.21484375 l 1
EndSplineSet
EndChar

StartChar: S
Encoding: 83 83 39
Width: 500
VWidth: 0
Flags: W
HStem: -0 163.214<6.82617 231.479> 587.919 162.081<204.058 329.818>
VStem: 0.00390625 200.515<514.114 610.652> 234.326 203.073<132.34 234.453>
LayerCount: 2
Fore
SplineSet
6.826171875 -0 m 1
 6.826171875 163.213867188 l 1
 202.68359375 163.213867188 l 2
 219.826171875 163.213867188 234.326171875 181 234.326171875 198.857421875 c 0
 234.326171875 213.27734375 232.14453125 222.600585938 221.69921875 237.049804688 c 0
 201.724609375 264.68359375 61.623046875 452.9921875 30.30859375 500 c 0
 -1.0068359375 547.0078125 0.00390625 568.220703125 0.00390625 595.495117188 c 0
 0.00390625 636.340820312 14.498046875 673.124023438 44.955078125 703.581054688 c 0
 75.4130859375 734.0390625 118.19140625 750 162.638671875 750 c 2
 427.803710938 750 l 1
 329.818359375 587.918945312 l 1
 235.369140625 587.918945312 l 2
 214.650390625 587.918945312 200.518554688 568.26171875 200.518554688 551.028320312 c 0
 200.518554688 536.180664062 203.231445312 527.295898438 209.447265625 517.569335938 c 0
 215.540039062 508.036132812 359.618164062 312.65234375 387.397460938 275.276367188 c 0
 415.176757812 237.901367188 437.399414062 206.5859375 437.399414062 157.088867188 c 0
 437.399414062 107.591796875 417.196289062 71.7314453125 390.427734375 44.9619140625 c 0
 363.659179688 18.193359375 318.202148438 -0 272.240234375 -0 c 2
 6.826171875 -0 l 1
EndSplineSet
EndChar

StartChar: T
Encoding: 84 84 40
Width: 512
VWidth: 0
Flags: W
HStem: -0 21G<137.857 301.429> -0 21G<137.857 301.429> 586.071 163.929<0 126.071 313.571 441.429>
VStem: 137.857 163.571<0 574.286>
LayerCount: 2
Fore
SplineSet
137.857421875 -0 m 1xb0
 137.857421875 574.286132812 l 1
 126.071289062 586.071289062 l 1
 0 586.071289062 l 1
 0 750 l 1
 441.428710938 750 l 1
 441.428710938 586.071289062 l 1
 313.571289062 586.071289062 l 1
 301.428710938 574.286132812 l 1
 301.428710938 -0 l 1
 137.857421875 -0 l 1xb0
EndSplineSet
EndChar

StartChar: U
Encoding: 85 85 41
Width: 560
VWidth: 0
Flags: W
HStem: -0 163.215<167.843 332.498> 730 20G<0 32.4858 332.498 495.986> 730 20G<0 32.4858 332.498 495.986>
VStem: 0 162.855<168.211 584.362> 332.498 163.488<163.215 750>
LayerCount: 2
Fore
SplineSet
0 159.615234375 m 2xd8
 0 750 l 1
 64.9716796875 697.0390625 138.762695312 638.114257812 198.390625 586.96484375 c 1
 176.783203125 586.96484375 162.85546875 569.999023438 162.85546875 551.0703125 c 2
 162.85546875 204.822265625 l 2
 162.85546875 179.46484375 183.926757812 163.21484375 203.748046875 163.21484375 c 2
 332.498046875 163.21484375 l 1
 332.498046875 750 l 1
 495.986328125 750 l 1
 495.986328125 -0 l 1
 170.716796875 -0 l 2
 64.1455078125 -0 0 77.2880859375 0 159.615234375 c 2xd8
EndSplineSet
EndChar

StartChar: V
Encoding: 86 86 42
Width: 690
VWidth: 0
Flags: W
HStem: -0 21G<296.83 335.416> -0 21G<296.83 335.416> 730 20G<0 170.204 462.042 626.531> 730 20G<0 170.204 462.042 626.531>
LayerCount: 2
Fore
SplineSet
217.12890625 60 m 0xa0
 151.72265625 268.795898438 80.7216796875 518.111328125 0 750 c 1
 164.6015625 750 l 1
 316.123046875 209.111328125 l 1
 467.64453125 750 l 1
 626.53125 750 l 1
 555.6015625 520.135742188 486.068359375 289.856445312 415.1171875 60 c 0
 403.559570312 23.185546875 354.708984375 -0 316.123046875 -0 c 0
 277.537109375 -0 228.686523438 23.185546875 217.12890625 60 c 0xa0
EndSplineSet
EndChar

StartChar: W
Encoding: 87 87 43
Width: 800
VWidth: 0
Flags: W
HStem: -0 21G<115.04 211.259 535.102 638.716> -0 21G<115.04 211.259 535.102 638.716> 730 20G<0 163.149 586.909 750> 730 20G<0 163.149 586.909 750>
VStem: 0 163.149<206.022 750> 586.909 163.091<206.022 750>
LayerCount: 2
Fore
SplineSet
0 750 m 1xac
 163.149414062 750 l 1
 163.149414062 206.022460938 l 2
 163.149414062 182.284179688 188.076171875 208.290039062 202.7578125 229.76171875 c 2
 373.3671875 479.268554688 l 1
 543.977539062 229.76171875 l 2
 556.94921875 210.791015625 586.909179688 183.041992188 586.909179688 206.022460938 c 2
 586.909179688 750 l 1
 750 750 l 1
 750 156.484375 l 2
 750 63.55078125 690.5234375 -0 586.909179688 -0 c 0
 483.293945312 -0 373.3671875 249.5078125 373.3671875 249.5078125 c 1
 373.3671875 249.5078125 259.368164062 -0 163.149414062 -0 c 0
 66.9306640625 -0 0 60.0556640625 0 156.484375 c 2
 0 750 l 1xac
EndSplineSet
EndChar

StartChar: X
Encoding: 88 88 44
Width: 650
VWidth: 0
Flags: W
HStem: -0 21G<0 41.9219 558.707 600.629> -0 21G<0 41.9219 558.707 600.629> 413.162 22.9102<287.266 313.363> 730 20G<19.873 61.6211 539.008 580.756> 730 20G<19.873 61.6211 539.008 580.756>
LayerCount: 2
Fore
SplineSet
19.873046875 750 m 1xb0
 61.62109375 750 l 1
 61.62109375 750 286.170898438 436.072265625 295.099609375 436.072265625 c 0
 298.576171875 436.072265625 302.052734375 436.072265625 305.529296875 436.072265625 c 0
 314.458007812 436.072265625 539.0078125 750 539.0078125 750 c 1
 580.755859375 750 l 1
 580.755859375 539.9375 l 1
 492.037109375 417.708984375 l 1
 600.62890625 239.416015625 l 1
 600.62890625 -0 l 1
 558.70703125 -0 l 1
 558.70703125 -0 317.610351562 413.162109375 305.529296875 413.162109375 c 0
 302.052734375 413.162109375 298.576171875 413.162109375 295.099609375 413.162109375 c 0
 283.018554688 413.162109375 41.921875 -0 41.921875 -0 c 1
 0 -0 l 1
 0 239.416015625 l 1
 108.591796875 417.708984375 l 1
 19.873046875 539.9375 l 1
 19.873046875 750 l 1xb0
EndSplineSet
EndChar

StartChar: Y
Encoding: 89 89 45
Width: 628
VWidth: 0
Flags: W
HStem: -0 21G<200.127 360.756> -0 21G<200.127 360.756> 730 20G<0 41.748 519.135 560.883> 730 20G<0 41.748 519.135 560.883>
VStem: 200.127 160.629<0 290.245>
LayerCount: 2
Fore
SplineSet
0 750 m 1xa8
 41.748046875 750 l 1
 41.748046875 750 266.297851562 436.072265625 275.2265625 436.072265625 c 2
 285.65625 436.072265625 l 2
 294.584960938 436.072265625 519.134765625 750 519.134765625 750 c 1
 560.8828125 750 l 1
 560.8828125 539.9375 l 1
 493.405273438 446.97265625 426.084960938 353.916015625 360.755859375 259.416015625 c 1
 360.755859375 -0 l 1
 200.126953125 -0 l 1
 200.126953125 259.416015625 l 1
 134.013671875 353.3515625 68.2568359375 447.534179688 0 539.9375 c 1
 0 750 l 1xa8
EndSplineSet
EndChar

StartChar: Z
Encoding: 90 90 46
Width: 576
VWidth: 0
Flags: W
HStem: -0 163.214<241.041 504.009> 587.919 162.081<125.93 273.139>
VStem: 0 237.708<132.34 228.232> 277.281 234.715<519.6 615.918>
LayerCount: 2
Fore
SplineSet
504.008789062 -0 m 1
 193.329101562 -0 l 2
 139.52734375 -0 86.318359375 18.193359375 54.9833984375 44.9619140625 c 0
 23.6484375 71.7314453125 0 107.591796875 0 157.088867188 c 0
 0 206.5859375 26.013671875 237.901367188 58.5302734375 275.276367188 c 0
 91.0478515625 312.65234375 259.69921875 508.036132812 266.830078125 517.569335938 c 0
 274.106445312 527.295898438 277.28125 536.180664062 277.28125 551.028320312 c 0
 277.28125 568.26171875 260.740234375 587.918945312 236.487304688 587.918945312 c 2
 125.9296875 587.918945312 l 1
 11.2333984375 750 l 1
 321.623046875 750 l 2
 373.650390625 750 423.725585938 734.0390625 459.376953125 703.581054688 c 0
 495.029296875 673.124023438 511.99609375 636.340820312 511.99609375 595.495117188 c 0
 511.99609375 568.220703125 513.177734375 547.0078125 476.522460938 500 c 0
 439.8671875 452.9921875 275.870117188 264.68359375 252.48828125 237.049804688 c 0
 240.262695312 222.600585938 237.708007812 213.27734375 237.708007812 198.857421875 c 0
 237.708007812 181 254.681640625 163.213867188 274.748046875 163.213867188 c 2
 504.008789062 163.213867188 l 1
 504.008789062 -0 l 1
EndSplineSet
EndChar

StartChar: a
Encoding: 97 97 47
Width: 567
VWidth: 0
Flags: W
HStem: -0 21G<0 163.066 337.576 500.643> -0 21G<0 163.066 337.576 500.643> 285.715 163.213<163.066 337.576> 586.428 163.572<169.61 331.033>
VStem: 0 163.066<0 285.715 448.928 580.636> 337.576 163.066<0 285.715 448.928 580.636>
LayerCount: 2
Fore
SplineSet
173.21484375 750 m 2xbc
 327.427734375 750 l 2
 428.395507812 750 500.642578125 685.58203125 500.642578125 591.072265625 c 2
 500.642578125 -0 l 1
 337.576171875 -0 l 1
 337.576171875 285.71484375 l 1
 163.06640625 285.71484375 l 1
 163.06640625 -0 l 1
 0 -0 l 1
 0 591.072265625 l 2
 0 685.58203125 72.2470703125 750 173.21484375 750 c 2xbc
203.927734375 586.427734375 m 2
 179.7109375 586.427734375 163.06640625 561.6328125 163.06640625 541.25 c 2
 163.06640625 448.927734375 l 1
 337.576171875 448.927734375 l 1
 337.576171875 541.25 l 2
 337.576171875 561.6328125 320.931640625 586.427734375 296.71484375 586.427734375 c 2
 203.927734375 586.427734375 l 2
EndSplineSet
EndChar

StartChar: b
Encoding: 98 98 48
Width: 567
VWidth: 0
Flags: W
HStem: -0 21G<0 393.708> -0 21G<0 393.708> 336.15 99.9941<163.244 214.836> 586.15 163.85<162.887 260.117>
VStem: 0 162.887<186.145 336.066 436.229 586.15> 264.154 205.062<515.539 582.44>
LayerCount: 2
Fore
SplineSet
0 750 m 1xbc
 294.96484375 750 l 2
 388.909179688 750 469.216796875 687.959960938 469.216796875 593.98046875 c 0
 469.216796875 500.000976562 374.26171875 419.22265625 374.26171875 419.22265625 c 1
 374.26171875 419.22265625 513.662109375 241.436523438 513.662109375 161.634765625 c 0
 513.662109375 81.8330078125 452.043945312 -0 335.37109375 -0 c 2
 0 -0 l 1
 0 750 l 1xbc
181.828125 586.150390625 m 2
 169.201171875 586.150390625 162.88671875 579.625 162.88671875 567.755859375 c 2
 162.88671875 500 l 1
 162.88671875 465.69140625 l 2
 162.88671875 438.669921875 173.028320312 436.14453125 188.43359375 436.14453125 c 0
 208.383789062 436.14453125 264.154296875 522.21875 264.154296875 535.603515625 c 2
 264.154296875 551.552734375 l 2
 264.154296875 566.452148438 244.962890625 586.150390625 229.810546875 586.150390625 c 2
 181.828125 586.150390625 l 2
188.43359375 336.150390625 m 0
 173.028320312 336.150390625 162.88671875 333.625 162.88671875 306.603515625 c 2
 162.88671875 272.294921875 l 1
 162.88671875 204.5390625 l 2
 162.88671875 192.669921875 169.201171875 186.14453125 181.828125 186.14453125 c 2
 229.810546875 186.14453125 l 2
 244.962890625 186.14453125 264.154296875 205.842773438 264.154296875 220.7421875 c 2
 264.154296875 236.69140625 l 2
 264.154296875 250.076171875 208.383789062 336.150390625 188.43359375 336.150390625 c 0
EndSplineSet
EndChar

StartChar: c
Encoding: 99 99 49
Width: 523
VWidth: 0
Flags: W
HStem: 0 163.149<167.042 466.943> 586.909 163.091<168.65 331.077>
VStem: 0 163.393<167.097 582.077>
LayerCount: 2
Fore
SplineSet
561.94921875 0 m 1
 155.6640625 0 l 2
 59.2353515625 0 0 77.52734375 0 169.2109375 c 2
 0 593.515625 l 2
 0 684.118164062 75.00390625 750 167.9375 750 c 2
 429.0625 750 l 1
 331.077148438 586.909179688 l 1
 203.990234375 586.909179688 l 2
 181.008789062 586.909179688 163.392578125 566.958007812 163.392578125 543.977539062 c 2
 163.392578125 202.7578125 l 2
 163.392578125 176.74609375 181.787109375 163.149414062 205.525390625 163.149414062 c 2
 466.943359375 163.149414062 l 1
 561.94921875 0 l 1
EndSplineSet
EndChar

StartChar: d
Encoding: 100 100 50
Width: 570
VWidth: 0
Flags: W
HStem: -0 163.215<163.488 328.144> 586.965 163.035<163.488 330.3>
VStem: 0 163.488<163.215 586.965> 333.131 162.855<168.211 584.362>
LayerCount: 2
Fore
SplineSet
-94.953125 750 m 1
 341.431640625 750 l 2
 441.94140625 750 495.986328125 665.196289062 495.986328125 587.919921875 c 2
 495.986328125 159.615234375 l 2
 495.986328125 77.2880859375 431.840820312 -0 325.26953125 -0 c 2
 0 -0 l 1
 0 587.919921875 l 1
 -94.953125 750 l 1
163.48828125 586.96484375 m 1
 163.48828125 163.21484375 l 1
 292.23828125 163.21484375 l 2
 312.059570312 163.21484375 333.130859375 179.46484375 333.130859375 204.822265625 c 2
 333.130859375 551.0703125 l 2
 333.130859375 569.999023438 319.203125 586.96484375 297.595703125 586.96484375 c 2
 163.48828125 586.96484375 l 1
EndSplineSet
EndChar

StartChar: e
Encoding: 101 101 51
Width: 523
VWidth: 0
Flags: W
HStem: -0 162.645<165.506 465.681> 317.45 161.877<162.447 284.105> 587.161 162.839<162.382 442.699>
VStem: -0.25293 162.383<166.987 317.45 479.327 587.161>
LayerCount: 2
Fore
SplineSet
0 750 m 1
 442.69921875 750 l 1
 442.69921875 587.161132812 l 1
 181.575195312 587.161132812 l 2
 162.88671875 587.161132812 162.381835938 573.776367188 162.381835938 566.706054688 c 2
 162.381835938 500 l 2
 162.381835938 488.418945312 170.2109375 479.327148438 183.08984375 479.327148438 c 2
 376.534179688 479.327148438 l 1
 284.10546875 317.450195312 l 1
 181.0703125 317.450195312 l 2
 168.948242188 317.450195312 162.129882812 308.359375 162.129882812 298.2578125 c 2
 162.129882812 197.495117188 l 2
 162.129882812 183.352539062 177.282226562 162.64453125 197.737304688 162.64453125 c 2
 465.680664062 162.64453125 l 1
 559.979492188 -0 l 1
 164.655273438 -0 l 2
 66.6728515625 -0 -0.966796875 63.3359375 -0.2529296875 177.544921875 c 0
 0.0771484375 230.32421875 0 750 0 750 c 1
EndSplineSet
EndChar

StartChar: f
Encoding: 102 102 52
Width: 512
VWidth: 0
Flags: W
HStem: -0 21G<0 162.13> -0 21G<0 162.13> 317.45 161.877<162.447 284.105> 587.161 162.839<162.382 442.699>
VStem: 0 162.13<0 317.45 479.327 587.161>
LayerCount: 2
Fore
SplineSet
0 750 m 1xb8
 442.69921875 750 l 1
 442.69921875 587.161132812 l 1
 181.575195312 587.161132812 l 2
 162.88671875 587.161132812 162.381835938 573.776367188 162.381835938 566.706054688 c 2
 162.381835938 500 l 2
 162.381835938 488.418945312 170.2109375 479.327148438 183.08984375 479.327148438 c 2
 376.534179688 479.327148438 l 1
 284.10546875 317.450195312 l 1
 181.0703125 317.450195312 l 2
 168.948242188 317.450195312 162.129882812 308.359375 162.129882812 298.2578125 c 2
 162.129882812 -0 l 1
 0 -0 l 1
 0 124.826171875 0.044921875 395.041992188 0 750 c 1xb8
EndSplineSet
EndChar

StartChar: g
Encoding: 103 103 53
Width: 523
VWidth: 0
Flags: W
HStem: -0 163.15<167.042 339.412> 586.908 163.092<168.65 331.078>
VStem: 0 163.393<167.098 582.076> 339.412 127.531<163.15 316.797>
LayerCount: 2
Fore
SplineSet
167.9375 750 m 2
 429.0625 750 l 1
 331.078125 586.908203125 l 1
 203.990234375 586.908203125 l 2
 181.008789062 586.908203125 163.392578125 566.958007812 163.392578125 543.9765625 c 2
 163.392578125 202.7578125 l 2
 163.392578125 176.74609375 181.787109375 163.150390625 205.525390625 163.150390625 c 2
 339.412109375 163.150390625 l 1
 339.412109375 281.31640625 l 2
 339.412109375 298.489257812 331.836914062 317.450195312 312.138671875 317.450195312 c 2
 239.912109375 317.450195312 l 1
 304.5625 440.71875 l 1
 466.943359375 440.71875 l 1
 466.943359375 163.150390625 l 1
 561.94921875 -0 l 1
 155.6640625 -0 l 2
 59.2353515625 -0 0 77.52734375 0 169.2109375 c 2
 0 593.515625 l 2
 0 684.118164062 75.00390625 750 167.9375 750 c 2
EndSplineSet
EndChar

StartChar: h
Encoding: 104 104 54
Width: 512
VWidth: 0
Flags: W
HStem: -0 21G<0 162.129 280.404 442.533> -0 21G<0 162.129 280.404 442.533> 317.451 161.877<162.446 280.088> 730 20G<0 162.381 280.152 442.533> 730 20G<0 162.381 280.152 442.533>
VStem: 0 162.129<0 317.451 479.328 750> 280.404 162.129<0 317.451 479.328 750>
LayerCount: 2
Fore
SplineSet
162.380859375 750 m 1xb6
 162.380859375 500 l 2
 162.380859375 488.418945312 170.209960938 479.328125 183.08984375 479.328125 c 2
 259.443359375 479.328125 l 2
 272.323242188 479.328125 280.15234375 488.418945312 280.15234375 500 c 2
 280.15234375 750 l 1
 442.533203125 750 l 1
 442.48828125 395.041992188 442.533203125 124.826171875 442.533203125 -0 c 1
 280.404296875 -0 l 1
 280.404296875 298.2578125 l 2
 280.404296875 308.359375 273.584960938 317.451171875 261.462890625 317.451171875 c 2
 181.068359375 317.451171875 l 2
 168.946289062 317.451171875 162.12890625 308.359375 162.12890625 298.2578125 c 2
 162.12890625 -0 l 1
 0 -0 l 1
 0 124.826171875 0.044921875 395.041992188 0 750 c 1
 162.380859375 750 l 1xb6
EndSplineSet
EndChar

StartChar: i
Encoding: 105 105 55
Width: 240
VWidth: 0
Flags: W
HStem: -0 21G<0 160> -0 21G<0 160> 730 20G<0 160> 730 20G<0 160>
VStem: 0 160<0 750>
LayerCount: 2
Fore
SplineSet
0 750 m 1xa8
 160 750 l 1
 160 -0 l 1
 0 -0 l 1
 0 750 l 1xa8
EndSplineSet
EndChar

StartChar: j
Encoding: 106 106 56
Width: 460
VWidth: 0
Flags: W
HStem: 0 163.149<5.00684 217.766> 730 20G<82.832 384.807> 730 20G<82.832 384.807>
VStem: 221.415 163.392<167.097 582.052>
LayerCount: 2
Fore
SplineSet
-90 0 m 1xd0
 5.0068359375 163.149414062 l 1
 179.28125 163.149414062 l 2
 203.01953125 163.149414062 221.415039062 176.74609375 221.415039062 202.7578125 c 2
 221.415039062 543.977539062 l 2
 221.415039062 566.823242188 204.220703125 586.909179688 180.81640625 586.909179688 c 1
 82.83203125 750 l 1
 384.806640625 750 l 1
 384.806640625 169.2109375 l 2
 384.806640625 77.52734375 325.571289062 0 229.142578125 0 c 2
 -90 0 l 1xd0
EndSplineSet
EndChar

StartChar: k
Encoding: 107 107 57
Width: 550
VWidth: 0
Flags: W
HStem: -0 21G<0 160 446.393 488.314> -0 21G<0 160 446.393 488.314> 413.162 22.9102<164.332 199.046> 730 20G<0 160 426.693 468.441> 730 20G<0 160 426.693 468.441>
VStem: 0 160<0 412.327 437.163 750>
LayerCount: 2
Fore
SplineSet
0 750 m 1xb4
 160 750 l 1
 160 460 l 2
 160 443.5625 173.815429688 436.072265625 193.21484375 436.072265625 c 0
 202.143554688 436.072265625 426.693359375 750 426.693359375 750 c 1
 468.44140625 750 l 1
 468.44140625 539.9375 l 1
 379.72265625 417.708984375 l 1
 488.314453125 239.416015625 l 1
 488.314453125 -0 l 1
 446.392578125 -0 l 1
 446.392578125 -0 202.528320312 413.162109375 190.447265625 413.162109375 c 0
 171.759765625 413.162109375 160 403.56640625 160 387.404296875 c 2
 160 -0 l 1
 0 -0 l 1
 0 750 l 1xb4
EndSplineSet
EndChar

StartChar: l
Encoding: 108 108 58
Width: 523
VWidth: 0
Flags: W
HStem: 0 163.149<167.042 466.943> 730 20G<0 163.782> 730 20G<0 163.782>
VStem: 0 163.393<167.097 750>
LayerCount: 2
Fore
SplineSet
561.94921875 0 m 1xd0
 155.6640625 0 l 2
 59.2353515625 0 0 77.52734375 0 169.2109375 c 0
 0 362.807617188 0 556.403320312 0 750 c 1
 163.392578125 750 l 1
 164.170898438 567.57421875 163.392578125 385.216796875 163.392578125 202.7578125 c 0
 163.392578125 176.74609375 181.787109375 163.149414062 205.525390625 163.149414062 c 2
 466.943359375 163.149414062 l 1
 561.94921875 0 l 1xd0
EndSplineSet
EndChar

StartChar: m
Encoding: 109 109 59
Width: 800
VWidth: 0
Flags: W
HStem: -0 21G<0 163.149 586.909 750> -0 21G<0 163.149 586.909 750> 730 20G<115.04 211.259 535.102 638.716> 730 20G<115.04 211.259 535.102 638.716>
VStem: 0 163.149<0 543.978> 586.909 163.091<0 543.978>
LayerCount: 2
Fore
SplineSet
0 -0 m 1xac
 0 593.515625 l 2
 0 689.944335938 66.9306640625 750 163.149414062 750 c 0
 259.368164062 750 373.3671875 500.4921875 373.3671875 500.4921875 c 1
 373.3671875 500.4921875 483.293945312 750 586.909179688 750 c 0
 690.5234375 750 750 686.44921875 750 593.515625 c 2
 750 -0 l 1
 586.909179688 -0 l 1
 586.909179688 543.977539062 l 2
 586.909179688 566.958007812 556.94921875 539.208984375 543.977539062 520.23828125 c 2
 373.3671875 270.731445312 l 1
 202.7578125 520.23828125 l 2
 188.076171875 541.709960938 163.149414062 567.715820312 163.149414062 543.977539062 c 2
 163.149414062 -0 l 1
 0 -0 l 1xac
EndSplineSet
EndChar

StartChar: n
Encoding: 110 110 60
Width: 800
VWidth: 0
Flags: W
HStem: -0 21G<0 163.15 518.922 638.718> -0 21G<0 163.15 518.922 638.718> 730 20G<115.041 230.47 586.91 750> 730 20G<115.041 230.47 586.91 750>
VStem: 0 163.15<0 543.977> 586.91 163.09<206.023 750>
LayerCount: 2
Fore
SplineSet
163.150390625 750 m 1xac
 297.790039062 737.102539062 427.861328125 345.225585938 543.978515625 229.76171875 c 1
 556.950195312 210.791992188 586.91015625 183.041992188 586.91015625 206.0234375 c 2
 586.91015625 750 l 1
 750 750 l 1
 750 156.484375 l 2
 750 63.55078125 690.525390625 -0 586.91015625 -0 c 1
 450.934570312 12.1494140625 320.231445312 400.080078125 202.7578125 520.23828125 c 1
 188.076171875 541.709960938 163.150390625 567.71484375 163.150390625 543.9765625 c 2
 163.150390625 -0 l 1
 0 -0 l 1
 0 593.515625 l 2
 0 689.944335938 66.931640625 750 163.150390625 750 c 1xac
EndSplineSet
EndChar

StartChar: o
Encoding: 111 111 61
Width: 640
VWidth: 0
Flags: W
HStem: 0.201172 162.733<164.975 409.661> 585.945 162.197<166.913 409.194>
VStem: 0 162.097<163.954 582.738> 414.028 162.097<163.89 582.794>
LayerCount: 2
Fore
SplineSet
116.0078125 4.6396484375 m 0
 92.7001953125 10.8056640625 70.9150390625 22.1904296875 52.7431640625 37.701171875 c 0
 20.8330078125 70.0234375 0 116.495117188 0 153.090820312 c 2
 0 598.384765625 l 2
 0 660.930664062 45.4267578125 708.909179688 80.9287109375 728.065429688 c 0
 121.147460938 748.930664062 113.016601562 748.142578125 288.0625 748.142578125 c 0
 463.108398438 748.142578125 454.977539062 748.930664062 495.196289062 728.065429688 c 1
 540.252929688 697.998046875 576.125 658.228515625 576.125 598.384765625 c 2
 576.125 153.090820312 l 2
 576.125 93.740234375 538.879882812 31.6865234375 468.46484375 6.509765625 c 0
 451.829101562 0.8642578125 449.0078125 0.7626953125 293.252929688 0.201171875 c 0
 144.075195312 -0.3369140625 133.856445312 -0.0810546875 116.0078125 4.6396484375 c 0
414.028320312 195.708984375 m 0
 413.58984375 317.072265625 413.109375 428.434570312 412.629882812 549.797851562 c 0
 412.629882812 567.552734375 396.629882812 585.9453125 380.873046875 585.9453125 c 2
 195.250976562 585.9453125 l 2
 181.655273438 585.9453125 163.495117188 569.668945312 163.495117188 549.797851562 c 0
 163 428.434570312 162.549804688 317.072265625 162.096679688 195.708984375 c 0
 162.096679688 177.403320312 174.698242188 162.934570312 190.87109375 162.934570312 c 2
 385.25390625 162.934570312 l 2
 402.548828125 162.934570312 414.028320312 179.893554688 414.028320312 195.708984375 c 0
EndSplineSet
EndChar

StartChar: p
Encoding: 112 112 62
Width: 640
VWidth: 0
Flags: W
HStem: -0 21G<0 162.129> -0 21G<0 162.129> 316.42 162.908<162.386 409.661> 586.506 163.494<162.383 411.407>
VStem: 0 162.129<0 316.292 479.328 586.37> 414.029 162.096<481.409 584.259>
LayerCount: 2
Fore
SplineSet
0 750 m 1xbc
 442.69921875 750 l 2
 503.362304688 749.0078125 576.125 671.122070312 576.125 598.9453125 c 2
 576.125 469.365234375 l 2
 576.125 410.014648438 538.879882812 347.959960938 468.46484375 322.783203125 c 0
 451.829101562 317.137695312 449.006835938 317.036132812 293.251953125 316.474609375 c 0
 235.776367188 316.267578125 199.057617188 316.181640625 174.453125 316.419921875 c 0
 166.499023438 313.770507812 162.12890625 306.33984375 162.12890625 298.2578125 c 2
 162.12890625 -0 l 1
 0 -0 l 1
 0 86.7734375 0.01171875 261.8359375 0.009765625 468.75390625 c 0
 0.0078125 468.95703125 0 469.163085938 0 469.365234375 c 2
 0 598.9453125 l 2
 0 599.114257812 0.0048828125 599.28125 0.005859375 599.44921875 c 0
 0.0029296875 652.594726562 0.0068359375 692.077148438 0 750 c 1xbc
175.111328125 586.505859375 m 2
 162.770507812 583.744140625 162.3828125 572.845703125 162.3828125 566.705078125 c 2
 162.3828125 500 l 2
 162.3828125 488.418945312 170.209960938 479.328125 183.08984375 479.328125 c 2
 376.53515625 479.328125 l 1
 376.466796875 479.208984375 l 1
 396.994140625 479.208984375 414.029296875 487.830078125 414.029296875 511.984375 c 0
 414.029296875 525.198242188 414.029296875 539.3359375 414.029296875 550.357421875 c 0
 414.029296875 574.541992188 396.62890625 586.505859375 380.873046875 586.505859375 c 2
 175.111328125 586.505859375 l 2
EndSplineSet
EndChar

StartChar: q
Encoding: 113 113 63
Width: 640
VWidth: 0
Flags: W
HStem: 0.759766 162.734<164.974 412.209> 586.506 162.197<166.913 409.193>
VStem: 0 162.096<164.513 583.298> 414.027 162.098<164.45 583.355>
LayerCount: 2
Fore
SplineSet
288.0625 748.703125 m 0
 463.108398438 748.703125 454.9765625 749.490234375 495.1953125 728.625 c 1
 540.251953125 698.556640625 576.125 658.7890625 576.125 598.9453125 c 0
 576.125 450.513671875 576.125 302.08203125 576.125 153.650390625 c 0
 576.099609375 102.611328125 567.560546875 43.5615234375 539.92578125 -0 c 1
 508.204101562 -40.0341796875 414.02734375 -155.048828125 414.02734375 -155.048828125 c 1
 414.02734375 1.541015625 l 1
 389.868164062 1.1259765625 352.78125 0.974609375 293.251953125 0.759765625 c 0
 144.07421875 0.2216796875 133.856445312 0.4775390625 116.0078125 5.19921875 c 0
 92.7001953125 11.3642578125 70.9140625 22.7509765625 52.7421875 38.26171875 c 0
 20.83203125 70.583984375 0 117.0546875 0 153.650390625 c 2
 0 598.9453125 l 2
 0 661.491210938 45.42578125 709.46875 80.927734375 728.625 c 0
 121.146484375 749.490234375 113.016601562 748.703125 288.0625 748.703125 c 0
195.251953125 586.505859375 m 2
 181.65625 586.505859375 163.494140625 570.229492188 163.494140625 550.357421875 c 0
 163 428.995117188 162.549804688 317.631835938 162.095703125 196.26953125 c 0
 162.095703125 177.963867188 174.698242188 163.494140625 190.87109375 163.494140625 c 2
 385.25390625 163.494140625 l 2
 402.548828125 163.494140625 414.02734375 180.454101562 414.02734375 196.26953125 c 0
 413.588867188 317.6328125 413.108398438 428.995117188 412.62890625 550.357421875 c 0
 412.62890625 568.11328125 396.62890625 586.505859375 380.873046875 586.505859375 c 2
 195.251953125 586.505859375 l 2
EndSplineSet
EndChar

StartChar: r
Encoding: 114 114 64
Width: 550
VWidth: 0
Flags: W
HStem: -0 21G<0 160 446.393 488.314> -0 21G<0 160 446.393 488.314> 413.162 22.9102<164.332 199.565> 588.215 161.785<173.58 261.592>
VStem: 0 160<0 412.327 437.163 574.436>
LayerCount: 2
Fore
SplineSet
0 750 m 1xb8
 103.765625 750 207.53125 750 311.296875 750 c 0
 357.513671875 750 406.344726562 724.333007812 435.583984375 688.541015625 c 0
 462.700195312 655.34765625 474.551757812 606.646484375 468.44140625 564.22265625 c 0
 460.302734375 507.711914062 379.72265625 417.708984375 379.72265625 417.708984375 c 1
 488.314453125 239.416015625 l 1
 488.314453125 -0 l 1
 446.392578125 -0 l 1
 446.392578125 -0 202.528320312 413.162109375 190.447265625 413.162109375 c 0
 171.759765625 413.162109375 160 403.56640625 160 387.404296875 c 2
 160 -0 l 1
 0 -0 l 1
 0 750 l 1xb8
173.580078125 588.21484375 m 1
 160 574.435546875 l 1
 160 460 l 2
 160 443.5625 173.815429688 436.072265625 193.21484375 436.072265625 c 0
 202.143554688 436.072265625 265.263671875 523.505859375 265.263671875 531.142578125 c 2
 265.263671875 554.142578125 l 2
 265.263671875 567.103515625 248.6875 588.21484375 227.2890625 588.21484375 c 2
 173.580078125 588.21484375 l 1
EndSplineSet
EndChar

StartChar: s
Encoding: 115 115 65
Width: 500
VWidth: 0
Flags: W
HStem: -0 163.214<6.82617 231.479> 587.919 162.081<204.058 329.818>
VStem: 0.00390625 200.515<514.114 610.652> 234.326 203.073<132.34 234.453>
LayerCount: 2
Fore
SplineSet
6.826171875 -0 m 1
 6.826171875 163.213867188 l 1
 202.68359375 163.213867188 l 2
 219.826171875 163.213867188 234.326171875 181 234.326171875 198.857421875 c 0
 234.326171875 213.27734375 232.14453125 222.600585938 221.69921875 237.049804688 c 0
 201.724609375 264.68359375 61.623046875 452.9921875 30.30859375 500 c 0
 -1.0068359375 547.0078125 0.00390625 568.220703125 0.00390625 595.495117188 c 0
 0.00390625 636.340820312 14.498046875 673.124023438 44.955078125 703.581054688 c 0
 75.4130859375 734.0390625 118.19140625 750 162.638671875 750 c 2
 427.803710938 750 l 1
 329.818359375 587.918945312 l 1
 235.369140625 587.918945312 l 2
 214.650390625 587.918945312 200.518554688 568.26171875 200.518554688 551.028320312 c 0
 200.518554688 536.180664062 203.231445312 527.295898438 209.447265625 517.569335938 c 0
 215.540039062 508.036132812 359.618164062 312.65234375 387.397460938 275.276367188 c 0
 415.176757812 237.901367188 437.399414062 206.5859375 437.399414062 157.088867188 c 0
 437.399414062 107.591796875 417.196289062 71.7314453125 390.427734375 44.9619140625 c 0
 363.659179688 18.193359375 318.202148438 -0 272.240234375 -0 c 2
 6.826171875 -0 l 1
EndSplineSet
EndChar

StartChar: t
Encoding: 116 116 66
Width: 512
VWidth: 0
Flags: W
HStem: -0 21G<137.857 301.429> -0 21G<137.857 301.429> 586.071 163.929<0 126.071 313.571 441.429>
VStem: 137.857 163.571<0 574.286>
LayerCount: 2
Fore
SplineSet
137.857421875 -0 m 1xb0
 137.857421875 574.286132812 l 1
 126.071289062 586.071289062 l 1
 0 586.071289062 l 1
 0 750 l 1
 441.428710938 750 l 1
 441.428710938 586.071289062 l 1
 313.571289062 586.071289062 l 1
 301.428710938 574.286132812 l 1
 301.428710938 -0 l 1
 137.857421875 -0 l 1xb0
EndSplineSet
EndChar

StartChar: u
Encoding: 117 117 67
Width: 560
VWidth: 0
Flags: W
HStem: -0 163.215<167.843 332.498> 730 20G<0 32.4858 332.498 495.986> 730 20G<0 32.4858 332.498 495.986>
VStem: 0 162.855<168.211 584.362> 332.498 163.488<163.215 750>
LayerCount: 2
Fore
SplineSet
0 159.615234375 m 2xd8
 0 750 l 1
 64.9716796875 697.0390625 138.762695312 638.114257812 198.390625 586.96484375 c 1
 176.783203125 586.96484375 162.85546875 569.999023438 162.85546875 551.0703125 c 2
 162.85546875 204.822265625 l 2
 162.85546875 179.46484375 183.926757812 163.21484375 203.748046875 163.21484375 c 2
 332.498046875 163.21484375 l 1
 332.498046875 750 l 1
 495.986328125 750 l 1
 495.986328125 -0 l 1
 170.716796875 -0 l 2
 64.1455078125 -0 0 77.2880859375 0 159.615234375 c 2xd8
EndSplineSet
EndChar

StartChar: v
Encoding: 118 118 68
Width: 690
VWidth: 0
Flags: W
HStem: -0 21G<296.83 335.416> -0 21G<296.83 335.416> 730 20G<0 170.204 462.042 626.531> 730 20G<0 170.204 462.042 626.531>
LayerCount: 2
Fore
SplineSet
217.12890625 60 m 0xa0
 151.72265625 268.795898438 80.7216796875 518.111328125 0 750 c 1
 164.6015625 750 l 1
 316.123046875 209.111328125 l 1
 467.64453125 750 l 1
 626.53125 750 l 1
 555.6015625 520.135742188 486.068359375 289.856445312 415.1171875 60 c 0
 403.559570312 23.185546875 354.708984375 -0 316.123046875 -0 c 0
 277.537109375 -0 228.686523438 23.185546875 217.12890625 60 c 0xa0
EndSplineSet
EndChar

StartChar: w
Encoding: 119 119 69
Width: 800
VWidth: 0
Flags: W
HStem: -0 21G<115.04 211.259 535.102 638.716> -0 21G<115.04 211.259 535.102 638.716> 730 20G<0 163.149 586.909 750> 730 20G<0 163.149 586.909 750>
VStem: 0 163.149<206.022 750> 586.909 163.091<206.022 750>
LayerCount: 2
Fore
SplineSet
0 750 m 1xac
 163.149414062 750 l 1
 163.149414062 206.022460938 l 2
 163.149414062 182.284179688 188.076171875 208.290039062 202.7578125 229.76171875 c 2
 373.3671875 479.268554688 l 1
 543.977539062 229.76171875 l 2
 556.94921875 210.791015625 586.909179688 183.041992188 586.909179688 206.022460938 c 2
 586.909179688 750 l 1
 750 750 l 1
 750 156.484375 l 2
 750 63.55078125 690.5234375 -0 586.909179688 -0 c 0
 483.293945312 -0 373.3671875 249.5078125 373.3671875 249.5078125 c 1
 373.3671875 249.5078125 259.368164062 -0 163.149414062 -0 c 0
 66.9306640625 -0 0 60.0556640625 0 156.484375 c 2
 0 750 l 1xac
EndSplineSet
EndChar

StartChar: x
Encoding: 120 120 70
Width: 650
VWidth: 0
Flags: W
HStem: -0 21G<0 41.9219 558.707 600.629> -0 21G<0 41.9219 558.707 600.629> 413.162 22.9102<287.266 313.363> 730 20G<19.873 61.6211 539.008 580.756> 730 20G<19.873 61.6211 539.008 580.756>
LayerCount: 2
Fore
SplineSet
19.873046875 750 m 1xb0
 61.62109375 750 l 1
 61.62109375 750 286.170898438 436.072265625 295.099609375 436.072265625 c 0
 298.576171875 436.072265625 302.052734375 436.072265625 305.529296875 436.072265625 c 0
 314.458007812 436.072265625 539.0078125 750 539.0078125 750 c 1
 580.755859375 750 l 1
 580.755859375 539.9375 l 1
 492.037109375 417.708984375 l 1
 600.62890625 239.416015625 l 1
 600.62890625 -0 l 1
 558.70703125 -0 l 1
 558.70703125 -0 317.610351562 413.162109375 305.529296875 413.162109375 c 0
 302.052734375 413.162109375 298.576171875 413.162109375 295.099609375 413.162109375 c 0
 283.018554688 413.162109375 41.921875 -0 41.921875 -0 c 1
 0 -0 l 1
 0 239.416015625 l 1
 108.591796875 417.708984375 l 1
 19.873046875 539.9375 l 1
 19.873046875 750 l 1xb0
EndSplineSet
EndChar

StartChar: y
Encoding: 121 121 71
Width: 628
VWidth: 0
Flags: W
HStem: -0 21G<200.127 360.756> -0 21G<200.127 360.756> 730 20G<0 41.748 519.135 560.883> 730 20G<0 41.748 519.135 560.883>
VStem: 200.127 160.629<0 290.245>
LayerCount: 2
Fore
SplineSet
0 750 m 1xa8
 41.748046875 750 l 1
 41.748046875 750 266.297851562 436.072265625 275.2265625 436.072265625 c 2
 285.65625 436.072265625 l 2
 294.584960938 436.072265625 519.134765625 750 519.134765625 750 c 1
 560.8828125 750 l 1
 560.8828125 539.9375 l 1
 493.405273438 446.97265625 426.084960938 353.916015625 360.755859375 259.416015625 c 1
 360.755859375 -0 l 1
 200.126953125 -0 l 1
 200.126953125 259.416015625 l 1
 134.013671875 353.3515625 68.2568359375 447.534179688 0 539.9375 c 1
 0 750 l 1xa8
EndSplineSet
EndChar

StartChar: z
Encoding: 122 122 72
Width: 576
VWidth: 0
Flags: W
HStem: -0 163.214<241.041 504.009> 587.919 162.081<125.93 273.139>
VStem: 0 237.708<132.34 228.232> 277.281 234.715<519.6 615.918>
LayerCount: 2
Fore
SplineSet
504.008789062 -0 m 1
 193.329101562 -0 l 2
 139.52734375 -0 86.318359375 18.193359375 54.9833984375 44.9619140625 c 0
 23.6484375 71.7314453125 0 107.591796875 0 157.088867188 c 0
 0 206.5859375 26.013671875 237.901367188 58.5302734375 275.276367188 c 0
 91.0478515625 312.65234375 259.69921875 508.036132812 266.830078125 517.569335938 c 0
 274.106445312 527.295898438 277.28125 536.180664062 277.28125 551.028320312 c 0
 277.28125 568.26171875 260.740234375 587.918945312 236.487304688 587.918945312 c 2
 125.9296875 587.918945312 l 1
 11.2333984375 750 l 1
 321.623046875 750 l 2
 373.650390625 750 423.725585938 734.0390625 459.376953125 703.581054688 c 0
 495.029296875 673.124023438 511.99609375 636.340820312 511.99609375 595.495117188 c 0
 511.99609375 568.220703125 513.177734375 547.0078125 476.522460938 500 c 0
 439.8671875 452.9921875 275.870117188 264.68359375 252.48828125 237.049804688 c 0
 240.262695312 222.600585938 237.708007812 213.27734375 237.708007812 198.857421875 c 0
 237.708007812 181 254.681640625 163.213867188 274.748046875 163.213867188 c 2
 504.008789062 163.213867188 l 1
 504.008789062 -0 l 1
EndSplineSet
EndChar

StartChar: underscore
Encoding: 95 95 74
Width: 640
VWidth: 0
Flags: W
HStem: -160 160<0 640>
LayerCount: 2
Fore
SplineSet
640 -0 m 1
 640 -160 l 1
 0 -160 l 1
 0 -0 l 1
 640 -0 l 1
EndSplineSet
EndChar

StartChar: ampersand
Encoding: 38 38 75
Width: 750
VWidth: 0
Flags: HW
HStem: 0 163.215<258.96 385.629> 730 20G<196.226 267.502> 730 20G<196.226 267.502>
VStem: 55.8145 174.8<520.363 621.579>
LayerCount: 2
Fore
SplineSet
408.486328125 564.348632812 m 1xd0
 408.486328125 564.348632812 355.352539062 610.962890625 308.322265625 626.491210938 c 0
 262.379882812 641.661132812 230.614257812 613.78125 230.614257812 578.884765625 c 0
 230.614257812 541.33984375 248.856445312 521.947265625 270.971679688 500 c 0
 335.938476562 435.52734375 696.9609375 62.943359375 696.9609375 62.943359375 c 1
 696.9609375 62.943359375 608.41796875 13.6494140625 598.577148438 0 c 0
 578.896484375 -27.2978515625 290.168945312 265.622070312 290.168945312 265.622070312 c 1
 290.168945312 265.622070312 256.11328125 213.27734375 256.11328125 198.857421875 c 0
 256.11328125 181 270.61328125 163.21484375 287.755859375 163.21484375 c 2
 385.62890625 163.21484375 l 1
 483.61328125 0 l 1
 218.19921875 0 l 2
 172.237304688 0 126.780273438 18.193359375 100.01171875 44.962890625 c 0
 73.2431640625 71.7314453125 53.0390625 107.592773438 53.0390625 157.08984375 c 0
 53.0390625 206.586914062 75.263671875 237.901367188 103.04296875 275.27734375 c 0
 113.118164062 288.833007812 156.10546875 343.783203125 180.915039062 377.43359375 c 1
 160.015625 406.0625 98.939453125 480.754882812 86.119140625 500 c 0
 54.8046875 547.0078125 55.814453125 568.221679688 55.814453125 595.49609375 c 0
 55.814453125 636.341796875 70.30859375 673.125 100.765625 703.58203125 c 0
 131.22265625 734.0390625 174.002929688 750 218.44921875 750 c 0
 316.555664062 750 384.1953125 697.45703125 408.486328125 564.348632812 c 1xd0
EndSplineSet
EndChar

StartChar: bracketleft
Encoding: 91 91 76
Width: 500
VWidth: 0
Flags: W
VStem: 110 111.429<0.399217 716.076>
LayerCount: 2
Fore
SplineSet
110 800 m 1
 390 800 l 1
 390 660 l 1
 390 660 221.428710938 800 221.428710938 660 c 2
 221.428710938 57.142578125 l 2
 221.428710938 -84.5234375 390 57.142578125 390 57.142578125 c 1
 390 -82.857421875 l 1
 110 -82.857421875 l 1
 110 375 l 1
 110 800 l 1
EndSplineSet
EndChar

StartChar: bracketright
Encoding: 93 93 77
Width: 500
VWidth: 0
Flags: W
VStem: 278.571 111.429<0.399217 716.076>
LayerCount: 2
Fore
SplineSet
390 800 m 1
 390 375 l 1
 390 -82.857421875 l 1
 110 -82.857421875 l 1
 110 57.142578125 l 1
 110 57.142578125 278.571289062 -84.5234375 278.571289062 57.142578125 c 2
 278.571289062 660 l 2
 278.571289062 800 110 660 110 660 c 1
 110 800 l 1
 390 800 l 1
EndSplineSet
EndChar

StartChar: asciitilde
Encoding: 126 126 78
Width: 660
VWidth: 0
Flags: HW
LayerCount: 2
Fore
SplineSet
585.651367188 750 m 0
 585.651367188 750.044921875 585.642578125 750.10546875 585.626953125 750.154296875 c 0
 585.538085938 750.427734375 585.225585938 750.572265625 584.959960938 750.461914062 c 2
 184.959960938 584.747070312 l 2
 184.771484375 584.668945312 184.6328125 584.459960938 184.653320312 584.23828125 c 0
 184.654296875 584.227539062 214.625976562 265.469726562 184.665039062 205.609375 c 1
 153.806640625 212.162109375 119.307617188 206.760742188 89.05859375 190.458007812 c 0
 26.73046875 156.844726562 -1.0771484375 87.1796875 27.17578125 34.7880859375 c 0
 55.4296875 -17.603515625 128.91796875 -32.642578125 191.24609375 0.970703125 c 0
 237.138671875 25.7509765625 265.921875 71.3662109375 263.981445312 116.415039062 c 0
 266.09765625 243.849609375 265.633789062 371.978515625 265.651367188 499.672851562 c 1
 513.295898438 607.83984375 l 1
 514.772460938 593.3125 539.213867188 347.5390625 511.624023438 286.619140625 c 1
 479.427734375 295.33203125 442.2734375 290.47265625 409.897460938 273.071289062 c 0
 347.567382812 239.458984375 319.758789062 169.79296875 348.01171875 117.401367188 c 0
 376.265625 65.009765625 449.752929688 49.96875 512.08203125 83.58203125 c 0
 556.201171875 107.427734375 584.654296875 150.6484375 584.854492188 194.26171875 c 0
 588.115234375 377.4375 585.651367188 565.348632812 585.651367188 750 c 0
584.651367188 749.251953125 m 1
 584.651367188 564.66015625 587.111328125 377.223632812 583.854492188 194.2734375 c 0
 583.65625 151.081054688 555.455078125 108.161132812 511.607421875 84.4619140625 c 0
 449.631835938 51.0390625 376.8125 66.1015625 348.892578125 117.875976562 c 0
 320.971679688 169.650390625 348.395507812 238.76953125 410.370117188 272.190429688 c 0
 442.640625 289.534179688 479.58984375 294.389648438 511.768554688 285.543945312 c 0
 512.009765625 285.477539062 512.260742188 285.61328125 512.354492188 285.814453125 c 0
 541.328125 348.147460938 514.221679688 608.61328125 514.220703125 608.624023438 c 0
 514.186523438 608.958007812 513.82421875 609.162109375 513.5234375 609.030273438 c 2
 264.951171875 500.458007812 l 2
 264.763671875 500.375976562 264.651367188 500.173828125 264.651367188 500 c 0
 264.6328125 372.203125 265.099609375 243.94921875 262.981445312 116.416992188 c 0
 262.981445312 116.407226562 262.981445312 116.393554688 262.981445312 116.38671875 c 0
 264.909179688 71.7919921875 236.387695312 26.482421875 190.771484375 1.8505859375 c 0
 128.796875 -31.572265625 55.9765625 -16.5107421875 28.056640625 35.2626953125 c 0
 0.1357421875 87.037109375 27.55859375 156.155273438 89.533203125 189.577148438 c 0
 119.681640625 205.827148438 154.036132812 211.216796875 184.831054688 204.55078125 c 0
 185.0625 204.5 185.29296875 204.639648438 185.380859375 204.810546875 c 0
 215.35546875 263.064453125 186.80859375 571.889648438 185.68359375 583.96484375 c 1
 584.651367188 749.251953125 l 1
585.151367188 750 m 1
 585.151367188 565.341796875 587.615234375 377.440429688 584.354492188 194.267578125 c 0
 584.155273438 150.864257812 555.828125 107.793945312 511.844726562 84.021484375 c 0
 449.692382812 50.50390625 376.5390625 65.5556640625 348.452148438 117.638671875 c 0
 320.365234375 169.721679688 347.981445312 239.114257812 410.133789062 272.630859375 c 0
 442.5078125 290.030273438 479.583984375 294.91015625 511.901367188 286.025390625 c 1
 540.737304688 348.061523438 513.723632812 608.572265625 513.723632812 608.572265625 c 1
 265.151367188 500 l 1
 265.1328125 372.204101562 265.599609375 243.947265625 263.481445312 116.408203125 c 0
 265.418945312 71.583984375 236.765625 26.1181640625 191.008789062 1.41015625 c 0
 128.857421875 -32.107421875 55.703125 -17.0576171875 27.6162109375 35.025390625 c 0
 -0.470703125 87.1083984375 27.14453125 156.5 89.2958984375 190.017578125 c 0
 119.541992188 206.319335938 154.012695312 211.733398438 184.936523438 205.0390625 c 1
 215.340820312 264.127929688 185.151367188 584.28515625 185.151367188 584.28515625 c 1
 585.151367188 750 l 1
EndSplineSet
EndChar

StartChar: asterisk
Encoding: 42 42 79
Width: 600
Flags: HW
LayerCount: 2
Fore
SplineSet
400.68359375 310.833007812 m 5
 462.30859375 105.427734375 l 5
 286 227.510742188 l 5
 109.69140625 105.427734375 l 5
 171.31640625 310.833007812 l 5
 0.7265625 440.788085938 l 5
 215.12109375 445.650390625 l 5
 286 648.049804688 l 5
 356.87890625 445.650390625 l 5
 571.2734375 440.788085938 l 5
 400.68359375 310.833007812 l 5
EndSplineSet
EndChar
